<?xml version="1.0" standalone="no"?>
<!DOCTYPE svg PUBLIC "-//W3C//DTD SVG 1.1//EN" "http://www.w3.org/Graphics/SVG/1.1/DTD/svg11.dtd" >
<!--
2017-9-14: Created.
-->
<svg xmlns="http://www.w3.org/2000/svg">
    <metadata>
        Created by FontForge 20120731 at Thu Sep 14 22:29:57 2017
        By icons8

    </metadata>
    <defs>
        <font id="3-0" horiz-adv-x="512">
            <font-face
                    font-family="3-0"
                    font-weight="500"
                    font-stretch="normal"
                    units-per-em="512"
                    panose-1="2 0 6 3 0 0 0 0 0 0"
                    ascent="448"
                    descent="-64"
                    bbox="-0.639648 -64.031 512.64 448"
                    underline-thickness="25.6"
                    underline-position="-51.2"
                    unicode-range="U+0020-F154"
            />
            <missing-glyph/>
            <glyph glyph-name="space" unicode=" " horiz-adv-x="200"
            />
            <glyph glyph-name="calendar-filled" unicode="&#xf14c;"
                   d="M122.88 448h20.4805c11.1992 0 20.4795 -9.28027 20.4795 -20.4805v-20.4795h184.32v20.4795c0 11.2002 9.28027 20.4805 20.4795 20.4805h20.4805c11.2002 0 20.4795 -9.28027 20.4795 -20.4805v-20.4795h61.4404c11.8799 0 20.4795 -8.59961 20.4795 -20.4805v-71.6797
h-471.039v71.6797c0 11.8809 8.59961 20.4805 20.4795 20.4805h61.4404v20.4795c0 11.2002 9.2793 20.4805 20.4795 20.4805zM122.88 427.52v-61.4395h20.4805v61.4395h-20.4805zM368.64 427.52v-61.4395h20.4805v61.4395h-20.4805zM20.4805 294.4h471.039v-317.44
c0 -11.8799 -8.59961 -20.4795 -20.4795 -20.4795h-430.08c-11.8799 0 -20.4795 8.59961 -20.4795 20.4795v317.44zM122.88 232.96v-51.2002h51.2002v51.2002h-51.2002zM194.56 232.96v-51.2002h51.2002v51.2002h-51.2002zM266.24 232.96v-51.2002h51.2002v51.2002h-51.2002
zM337.92 232.96v-51.2002h51.2002v51.2002h-51.2002zM122.88 161.28v-51.2002h51.2002v51.2002h-51.2002zM194.56 161.28v-51.2002h51.2002v51.2002h-51.2002zM266.24 161.28v-51.2002h51.2002v51.2002h-51.2002zM337.92 161.28v-51.2002h51.2002v51.2002h-51.2002z
M122.88 89.5996v-51.1992h51.2002v51.1992h-51.2002zM194.56 89.5996v-51.1992h51.2002v51.1992h-51.2002zM266.24 89.5996v-51.1992h51.2002v51.1992h-51.2002zM337.92 89.5996v-51.1992h51.2002v51.1992h-51.2002z"/>
            <glyph glyph-name="purchase-order" unicode="&#xf100;"
                   d="M40.96 448h430.08v-512h-430.08v512zM61.4404 427.52v-471.039h389.119v471.039h-389.119zM133.12 335.36h245.76v-20.4805h-245.76v20.4805zM133.12 192h40.96v-20.4805h-40.96v20.4805zM204.8 192h174.08v-20.4805h-174.08v20.4805zM133.12 130.56h40.96v-20.4795
h-40.96v20.4795zM204.8 130.56h174.08v-20.4795h-174.08v20.4795zM133.12 69.1201h40.96v-20.4805h-40.96v20.4805zM204.8 69.1201h174.08v-20.4805h-174.08v20.4805z"/>
            <glyph glyph-name="headset-filled" unicode="&#xf137;"
                   d="M256 437.76c87.7197 0 161.36 -61.7598 179.84 -144c-1.87988 0.200195 -3.83984 0.640625 -5.75977 0.640625c-5.28027 0 -10.2803 -1.08008 -15.04 -2.56055c-17.3604 71.7998 -82 125.44 -159.04 125.44c-77.0801 0 -141.68 -53.6406 -159.04 -125.44
c-4.75977 1.48047 -9.7998 2.56055 -15.04 2.56055c-1.91992 0 -3.87988 -0.44043 -5.75977 -0.640625c18.4795 82.2402 92.0801 144 179.84 144zM81.9199 273.92c16.9199 0 30.7197 -13.7998 30.7197 -30.7197v-153.601c0 -16.9199 -13.7998 -30.7197 -30.7197 -30.7197
s-30.7197 13.7998 -30.7197 30.7197v153.601c0 16.9199 13.7998 30.7197 30.7197 30.7197zM430.08 273.92c16.9199 0 30.7197 -13.7998 30.7197 -30.7197v-153.601c0 -16.9199 -13.7998 -30.7197 -30.7197 -30.7197s-30.7197 13.7998 -30.7197 30.7197v153.601
c0 16.9199 13.7998 30.7197 30.7197 30.7197zM30.7197 241.92v-151.04c-18.4795 14.8398 -30.7197 42.6797 -30.7197 75.5205c0 32.8398 12.2402 60.6797 30.7197 75.5195zM481.28 241.92c18.4795 -14.8398 30.7197 -42.6797 30.7197 -75.5195
c0 -32.8408 -12.2402 -60.6807 -30.7197 -75.5205v151.04zM415.68 40.6396c4.60059 -1.35938 9.36035 -2.23926 14.4004 -2.23926c2.2002 0 4.24023 0.359375 6.40039 0.639648c-10.4805 -38.96 -42.3203 -62.0801 -88.3203 -62.0801h-11.2002
c0.679688 3.32031 0.959961 6.71973 0.959961 10.2402c0 3.51953 -0.280273 6.91992 -0.959961 10.2402h11.2002c35 0 58.4795 15.3994 67.5195 43.1992zM235.52 17.9199h51.2002c16.9199 0 30.7207 -13.7998 30.7207 -30.7197s-13.8008 -30.7197 -30.7207 -30.7197
h-51.2002c-16.9199 0 -30.7197 13.7998 -30.7197 30.7197s13.7998 30.7197 30.7197 30.7197z"/>
            <glyph glyph-name="forward-filled" unicode="&#xf134;"
                   d="M153.4 417.48c5.51953 0 10.7998 -2.24023 14.6797 -6.2002l204.8 -204.8c8 -8 8 -20.9609 0 -28.9609l-204.8 -204.8c-5.12012 -5.35938 -12.7598 -7.51953 -19.96 -5.63965c-7.16016 1.87988 -12.7598 7.47949 -14.6396 14.6396
c-1.88086 7.2002 0.279297 14.8398 5.63965 19.96l190.32 190.32l-190.32 190.32c-5.95996 5.7998 -7.83984 14.6396 -4.67969 22.3594c3.11914 7.7207 10.5996 12.8008 18.96 12.8008z"/>
            <glyph glyph-name="save-as" unicode="&#xf138;"
                   d="M51.2002 427.52h337.92c2.71973 0 5.43945 -0.959961 7.36035 -2.87988l92.1592 -92.1592c1.91992 -1.9209 2.87988 -4.64062 2.87988 -7.36035v-44.7998s-9.19922 3.83984 -20.4795 3.83984v36.7998l-86.0801 86.0801h-6.08008v-153.6
c0 -11.2002 -9.28027 -20.4805 -20.4795 -20.4805h-235.521c-11.2002 0 -20.4795 9.28027 -20.4795 20.4805v153.6h-51.2002c-5.64062 0 -10.2402 -4.59961 -10.2402 -10.2402v-409.6c0 -5.64062 4.59961 -10.2402 10.2402 -10.2402h51.2002v176
c0 15.7998 13 28.7998 28.7998 28.7998h216.96l-20.4805 -20.4795h-196.479c-4.52051 0 -8.32031 -3.7998 -8.32031 -8.32031v-176h266.24v81.9199l20.4795 20.4805v-102.4h51.2002c5.64062 0 10.2402 4.59961 10.2402 10.2402v153.6l20.4795 20.4805v-174.08
c0 -16.9199 -13.7998 -30.7197 -30.7197 -30.7197h-409.6c-16.9199 0 -30.7197 13.7998 -30.7197 30.7197v409.6c0 16.9199 13.7998 30.7197 30.7197 30.7197zM122.88 407.04v-153.6h235.521v153.6h-235.521zM295.04 386.56h0.959961h0.959961h30.7197
c5.64062 0 10.2402 -4.59961 10.2402 -10.2393v-92.1602c0 -5.64062 -4.59961 -10.2402 -10.2402 -10.2402h-30.7197c-5.63965 0 -10.2402 4.59961 -10.2402 10.2402v92.1602c-0.0800781 5 3.44043 9.31934 8.32031 10.2393zM307.2 366.08v-71.6797h10.2402v71.6797
h-10.2402zM470.4 263.68c10.6797 0 21.2793 -4 29.4395 -12.1602c16.2803 -16.2793 16.3203 -42.8799 0 -59.1992c0 0 -1.47949 -1.16016 -2.55957 -2.24023c-0.520508 -0.839844 -1.16016 -1.59961 -1.91992 -2.24023c-1.2002 -1.2002 -2.56055 -2.55957 -2.56055 -2.55957
l-158.08 -158.08c-1.2002 -1.32031 -2.75977 -2.32031 -4.47949 -2.87988l-61.4404 -16.3203c-3.51953 -0.919922 -7.24023 0.120117 -9.7998 2.67969c-2.55957 2.56055 -3.59961 6.28027 -2.67969 9.80078l16.3193 61.4395
c0.560547 1.71973 1.56055 3.28027 2.87988 4.48047l160.641 160.64c0.639648 0.759766 1.39941 1.40039 2.24023 1.91992l2.23926 2.55957c8.16016 8.16016 19.0801 12.1602 29.7607 12.1602zM448 230.08l-156.16 -156.16l-0.320312 -0.639648l30.0801 -30.0801
l0.640625 0.319336l156.16 156.16zM61.4404 28.1602h20.4795v-20.4805h-20.4795v20.4805zM430.08 28.1602h20.4795v-20.4805h-20.4795v20.4805z"/>
            <glyph glyph-name="microsoft-excel-filled" unicode="&#xf118;"
                   d="M295.04 447.68c3 0.560547 5.95996 0.0400391 8.32031 -1.91992c2.35938 -1.95996 3.83984 -4.95996 3.83984 -8v-491.52c0 -3.04004 -1.48047 -6.04004 -3.83984 -8c-1.84082 -1.52051 -4.04004 -2.24023 -6.40039 -2.24023
c-0.639648 0 -1.28027 0.200195 -1.91992 0.320312l-286.72 54.3994c-4.83984 0.919922 -8.32031 5.32031 -8.32031 10.2402v382.08c0 4.91992 3.48047 9.32031 8.32031 10.2402zM327.68 386.56h153.601c11.2793 0 20.4795 -9.19922 20.4795 -20.4795v-348.16
c0 -11.2803 -9.2002 -20.4795 -20.4795 -20.4795h-153.601v71.6797h20.4805v20.4795h-20.4805v61.4404h20.4805v20.4795h-20.4805v51.2002h20.4805v20.4805h-20.4805v51.2002h20.4805v20.4795h-20.4805v71.6797zM368.64 314.88v-20.4795h81.9199v20.4795h-81.9199z
M68.4805 287.36l56 -95.6807l-61.1201 -95.6797h51.1992l33.2803 61.7598c2.32031 5.95996 3.83984 10.5205 4.48047 13.4404h0.319336c1.32031 -6.2002 2.60059 -10.4805 3.84082 -12.7998l33.2793 -62.4004h50.8799l-58.8799 96.6396l57.2803 94.7207h-48
l-30.4004 -56.6406c-2.91992 -7.39941 -5 -13.2393 -6.08008 -16.96h-0.319336c-1.68066 6.24023 -3.60059 11.7998 -5.75977 16.3203l-27.5205 57.2803h-52.4795zM368.64 243.2v-20.4805h81.9199v20.4805h-81.9199zM368.64 171.52v-20.4795h81.9199v20.4795h-81.9199z
M368.64 89.5996v-20.4795h81.9199v20.4795h-81.9199z"/>
            <glyph glyph-name="move" unicode="&#xf11f;"
                   d="M256 406.625l75.3125 -75.3125l-22.625 -22.625l-36.6875 36.6875v-89.375h-32v89.375l-36.6875 -36.6875l-22.625 22.625zM116.688 267.312l22.625 -22.625l-36.6875 -36.6875h105.375v-32h-105.375l36.6875 -36.6875l-22.625 -22.625l-75.3125 75.3125z
M395.312 267.312l75.3125 -75.3125l-75.3125 -75.3125l-22.625 22.625l36.6875 36.6875h-105.375v32h105.375l-36.6875 36.6875zM240 144h32v-105.375l36.6875 36.6875l22.625 -22.625l-75.3125 -75.3125l-75.3125 75.3125l22.625 22.625l36.6875 -36.6875v105.375z"/>
            <glyph glyph-name="add-folder" unicode="&#xf10c;"
                   d="M68 384h74.375c17.6309 0 33.9004 -9.6875 42.25 -25.1875l20.9375 -38.8125h214.438c26.3213 0 48 -21.6787 48 -48v-102.625c19.7188 -24.6436 32 -55.4678 32 -89.375c0 -79.3398 -64.6602 -144 -144 -144c-49.7666 0 -93.7451 25.4531 -119.625 64h-168.375
c-26.3213 0 -48 21.6787 -48 48v256v32c0 26.3213 21.6787 48 48 48zM68 352c-9.00684 0 -16 -6.99316 -16 -16v-16h117.188l-12.75 23.625c-2.78613 5.17188 -8.1416 8.375 -14.0625 8.375h-74.375zM52 288v-240c0 -9.00684 6.99316 -16 16 -16h152.812
c-5.38477 15.085 -8.8125 31.0996 -8.8125 48c0 79.3398 64.6602 144 144 144c29.5723 0 57.0947 -8.99609 80 -24.375v72.375c0 9.00684 -6.99316 16 -16 16h-368zM356 192c-62.0449 0 -112 -49.9551 -112 -112s49.9551 -112 112 -112s112 49.9551 112 112
s-49.9551 112 -112 112zM340 160h32v-64h64v-32h-64v-64h-32v64h-64v32h64v64z"/>
            <glyph glyph-name="back" unicode="&#xf119;"
                   d="M358.2 407.12c4.24023 0.160156 8.08008 -2.32031 9.71973 -6.24023c1.63965 -3.87988 0.759766 -8.36035 -2.28027 -11.3203l-197.56 -197.56l197.56 -197.56c2.68066 -2.56055 3.76074 -6.40039 2.80078 -9.95996
c-0.920898 -3.60059 -3.7207 -6.40039 -7.32031 -7.32031c-3.56055 -0.959961 -7.40039 0.120117 -9.95996 2.7998l-204.8 204.8c-4 4 -4 10.4805 0 14.4805l204.8 204.8c1.83984 1.91992 4.35938 3.04004 7.04004 3.08008z"/>
            <glyph glyph-name="checked-checkbox" unicode="&#xf112;"
                   d="M426.667 405.333c23.5 0 42.666 -19.166 42.666 -42.666v-341.334c0 -23.5 -19.166 -42.666 -42.666 -42.666h-341.334c-23.5 0 -42.666 19.166 -42.666 42.666v341.334c0 23.5 19.166 42.666 42.666 42.666h341.334zM198.417 70.417l221.833 215.416l-29.833 29.917
l-192 -185.583l-76.834 76.75l-29.833 -29.834z"/>
            <glyph glyph-name="search-property" unicode="&#xf126;"
                   d="M28.7998 448h392.96c15.7207 0 28.7998 -13.0801 28.7998 -28.7998v-51.2002c0.0800781 -0.639648 0.0800781 -1.28027 0 -1.91992v-174.08c0.0400391 -3.67969 -1.87988 -7.12012 -5.0791 -9c-3.2002 -1.83984 -7.12012 -1.83984 -10.3203 0
c-3.2002 1.87988 -5.12012 5.32031 -5.08008 9v163.84h-409.6v-307.2h225.279c3.68066 0.0400391 7.12012 -1.87988 9 -5.08008c1.83984 -3.19922 1.83984 -7.11914 0 -10.3193c-1.87988 -3.2002 -5.31934 -5.12012 -9 -5.08008h-235.52
c-5.64062 0 -10.2402 4.59961 -10.2402 10.2402v327.68c-0.0800781 0.639648 -0.0800781 1.28027 0 1.91992v51.2002c0 15.7197 13.0801 28.7998 28.7998 28.7998zM28.7998 427.52c-4.75977 0 -8.31934 -3.55957 -8.31934 -8.31934v-42.8799h409.6v42.8799
c0 4.75977 -3.56055 8.31934 -8.32031 8.31934h-392.96zM71.6797 294.4h40.96v-20.4805h-40.96v20.4805zM143.36 294.4h235.52v-20.4805h-235.52v20.4805zM71.6797 243.2h40.96v-20.4805h-40.96v20.4805zM143.36 243.2h235.52v-20.4805h-235.52v20.4805zM71.6797 192h40.96
v-20.4805h-40.96v20.4805zM143.36 192h143.359v-20.4805h-143.359v20.4805zM368.64 181.76c56.4404 0 102.4 -45.96 102.4 -102.399c0 -24.5205 -8.59961 -47 -23.04 -64.6406l61.1201 -61.1201l-14.7197 -14.7197l-61.1201 61.1201
c-17.6406 -14.4404 -40.1201 -23.04 -64.6406 -23.04c-56.4395 0 -102.399 45.96 -102.399 102.4c0 56.4395 45.96 102.399 102.399 102.399zM368.64 161.28c-45.3594 0 -81.9199 -36.5605 -81.9199 -81.9199c0 -45.3604 36.5605 -81.9199 81.9199 -81.9199
c45.3604 0 81.9199 36.5596 81.9199 81.9199c0 45.3594 -36.5596 81.9199 -81.9199 81.9199zM71.6797 140.8h40.96v-20.4795h-40.96v20.4795zM143.36 140.8h102.399v-20.4795h-102.399v20.4795z"/>
            <glyph glyph-name="test-partial-passed" unicode="&#xf13b;"
                   d="M256 448c18.9199 0 34.4004 -13.2002 39.04 -30.7197h32.6396h0.640625h91.5195c16.8398 0 30.7197 -13.8799 30.7197 -30.7207v-399.359c0 -16.8398 -13.8799 -30.7197 -30.7197 -30.7197h-327.68c-16.8398 0 -30.7197 13.8799 -30.7197 30.7197v399.359
c0 16.8408 13.8799 30.7207 30.7197 30.7207h124.8c4.63965 17.5195 20.1201 30.7197 39.04 30.7197zM256 427.52c-11.4404 0 -20.4805 -9.03906 -20.4805 -20.4795c0 -5.63965 -4.59961 -10.2402 -10.2393 -10.2402h-30.7207v-20.4795h122.881v20.4795h-30.7207
c-5.63965 0 -10.2393 4.60059 -10.2393 10.2402c0 11.4404 -9.04004 20.4795 -20.4805 20.4795zM92.1602 396.8c-5.7998 0 -10.2402 -4.43945 -10.2402 -10.2402v-399.359c0 -5.7998 4.44043 -10.2402 10.2402 -10.2402h327.68c5.7998 0 10.2402 4.44043 10.2402 10.2402
v399.359c0 5.80078 -4.44043 10.2402 -10.2402 10.2402h-81.9199v-30.7197c0 -5.63965 -4.59961 -10.2402 -10.2402 -10.2402h-143.359c-5.64062 0 -10.2402 4.60059 -10.2402 10.2402v30.7197h-81.9199zM368.64 274.56c4.04004 0.280273 7.87988 -1.87988 9.76074 -5.51953
c1.87988 -3.59961 1.43945 -7.95996 -1.12012 -11.1201l-40.3203 -60.1602c-0.0800781 -0.319336 -0.200195 -0.639648 -0.320312 -0.959961l-0.319336 -0.319336l-0.320312 -0.320312c-0.200195 -0.320312 -0.400391 -0.640625 -0.639648 -0.959961
c-0.280273 -0.360352 -0.600586 -0.680664 -0.959961 -0.959961c-0.200195 -0.120117 -0.44043 -0.240234 -0.640625 -0.320312c-0.200195 -0.240234 -0.399414 -0.439453 -0.639648 -0.639648c-0.320312 -0.120117 -0.639648 -0.240234 -0.959961 -0.320312
c-0.200195 -0.120117 -0.44043 -0.240234 -0.640625 -0.320312c-0.719727 -0.279297 -1.47949 -0.519531 -2.23926 -0.639648h-0.320312c-0.639648 -0.0400391 -1.28027 -0.0400391 -1.91992 0h-0.320312h-0.639648h-0.320312
c-0.200195 0.0800781 -0.439453 0.200195 -0.639648 0.320312h-0.320312c-0.200195 0.0800781 -0.439453 0.199219 -0.639648 0.319336h-0.320312c-0.200195 0.0800781 -0.439453 0.200195 -0.639648 0.320312c-0.200195 0.0800781 -0.44043 0.200195 -0.640625 0.320312
c-0.439453 0.200195 -0.879883 0.399414 -1.2793 0.639648l-0.320312 0.320312s-0.200195 0.200195 -0.320312 0.319336c-0.120117 0.120117 -0.199219 0.200195 -0.319336 0.320312l-0.640625 0.639648c-0.239258 0.200195 -0.439453 0.400391 -0.639648 0.640625
l-29.4404 29.4395c-2.83984 2.64062 -3.95996 6.64062 -2.87988 10.4004c1.08008 3.71973 4.16016 6.51953 8 7.2002c0.400391 0.120117 0.839844 0.240234 1.28027 0.319336c3.12012 0.240234 6.2002 -0.919922 8.32031 -3.19922l21.7598 -21.7607l33.9199 50.8809
c1.44043 2.2793 3.75977 3.87988 6.40039 4.47949c0.199219 0.120117 0.439453 0.240234 0.639648 0.320312c0.519531 0.160156 1.04004 0.240234 1.59961 0.319336zM140.48 243.2h0.959961h0.959961h0.959961h102.399c3.68066 0.0400391 7.12012 -1.87988 9 -5.08008
c1.83984 -3.2002 1.83984 -7.12012 0 -10.3203c-1.87988 -3.2002 -5.31934 -5.12012 -9 -5.08008h-102.399c-5.64062 -0.799805 -10.8799 3.16016 -11.6807 8.7998c-0.799805 5.64062 3.16016 10.8809 8.80078 11.6807zM296 141.12
c3.12012 0.240234 6.2002 -0.919922 8.32031 -3.2002l23.3594 -23.3604l23.3604 23.3604c1.63965 1.59961 3.7998 2.63965 6.08008 2.87988c4.43945 0.719727 8.87988 -1.51953 10.8398 -5.59961c2 -4.04004 1.12012 -8.91992 -2.2002 -12l-23.3594 -23.3604
l23.3594 -23.3594c4.08008 -4.08008 4.08008 -10.6406 0 -14.7207s-10.6396 -4.08008 -14.7197 0l-23.3604 23.3604l-23.3594 -23.3604c-4.08008 -4.08008 -10.6406 -4.08008 -14.7207 0s-4.08008 10.6406 0 14.7207l23.3604 23.3594l-23.3604 23.3604
c-2.83984 2.63965 -3.95996 6.63965 -2.87988 10.3994c1.08008 3.7207 4.16016 6.52051 8 7.2002c0.400391 0.120117 0.839844 0.240234 1.28027 0.320312zM140.48 110.08h0.959961h0.959961h0.959961h102.399c3.68066 0.0400391 7.12012 -1.87988 9 -5.08008
c1.83984 -3.2002 1.83984 -7.12012 0 -10.3203c-1.87988 -3.19922 -5.31934 -5.12012 -9 -5.08008h-102.399c-5.64062 -0.799805 -10.8799 3.16016 -11.6807 8.80078c-0.799805 5.63965 3.16016 10.8799 8.80078 11.6797z"/>
            <glyph glyph-name="export" unicode="&#xf106;"
                   d="M80 416h320c26.3213 0 48 -21.6787 48 -48v-48h-32v48c0 9.00684 -6.99316 16 -16 16h-320c-9.00684 0 -16 -6.99316 -16 -16v-320c0 -9.00684 6.99316 -16 16 -16h320c9.00684 0 16 6.99316 16 16v48h32v-48c0 -26.3213 -21.6787 -48 -48 -48h-320
c-26.3213 0 -48 21.6787 -48 48v320c0 26.3213 21.6787 48 48 48zM343.312 319.312l111.312 -111.312l-111.312 -111.312l-22.625 22.625l72.6875 72.6875h-233.375v32h233.375l-72.6875 72.6875z"/>
            <glyph glyph-name="combi-ticket" unicode="&#xf139;"
                   d="M106.44 396.8c19.04 0 36.9199 -14.4795 36.9199 -34.6396v-6.32031h317.439c16.8398 0 30.7197 -13.8799 30.7197 -30.7197v-236.64c0 -16 -12.5596 -29.1602 -28.2793 -30.4404l-2.48047 -32l-0.120117 -0.44043
c-1.43945 -9.08008 -7.08008 -15.5996 -13.6396 -20.6396c-6.55957 -5 -14.5996 -8.7998 -23.96 -7.40039h-0.0800781l-370.72 60.2002h-1.04004c-16.8398 0 -30.7197 13.8799 -30.7197 30.7207v236.64c0 16.8398 13.8799 30.7197 30.7197 30.7197h20.4795v6.32031
c0 19.04 15.7207 34.6396 34.7607 34.6396zM106.44 376.32c-8.04004 0 -14.2803 -6.24023 -14.2803 -14.1602v-6.32031h30.7197v6.32031c0 6.83984 -8.39941 14.1602 -16.4395 14.1602zM51.2002 335.36c-5.7998 0 -10.2402 -4.44043 -10.2402 -10.2402v-236.64
c0 -5.76074 4.44043 -10.2402 10.2402 -10.2402h409.6c5.7998 0 10.2402 4.47949 10.2402 10.2402v236.64c0 5.7998 -4.44043 10.2402 -10.2402 10.2402h-368.64v-64.6006c0 -4.51953 3.51953 -8.04004 8.16016 -8.04004h2.08008c2.31934 0 5.35938 1.12012 7.35938 2.87988
c2.04004 1.76074 2.87988 3.60059 2.87988 5.16016v44.1201c-0.0400391 3.67969 1.87988 7.12012 5.08008 9c3.2002 1.83984 7.12012 1.83984 10.3203 0c3.2002 -1.87988 5.12012 -5.32031 5.08008 -9v-44.1201c0 -8.55957 -4.32031 -15.7998 -10 -20.6797
s-12.8799 -7.83984 -20.7197 -7.83984h-2.08008c-15.6406 0 -28.6406 12.8398 -28.6406 28.5195v64.6006h-20.4795zM215.04 273.92h184.32c3.67969 0.0400391 7.12012 -1.87988 9 -5.08008c1.83984 -3.2002 1.83984 -7.12012 0 -10.3203
c-1.87988 -3.19922 -5.32031 -5.11914 -9 -5.0791h-184.32c-3.67969 -0.0400391 -7.12012 1.87988 -9 5.0791c-1.83984 3.2002 -1.83984 7.12012 0 10.3203c1.87988 3.2002 5.32031 5.12012 9 5.08008zM215.04 222.72h184.32c3.67969 0.0400391 7.12012 -1.87988 9 -5.08008
c1.83984 -3.19922 1.83984 -7.12012 0 -10.3193c-1.87988 -3.2002 -5.32031 -5.12012 -9 -5.08008h-184.32c-3.67969 -0.0400391 -7.12012 1.87988 -9 5.08008c-1.83984 3.19922 -1.83984 7.12012 0 10.3193c1.87988 3.2002 5.32031 5.12012 9 5.08008zM215.04 171.52
h184.32c3.67969 0.0400391 7.12012 -1.87988 9 -5.0791c1.83984 -3.2002 1.83984 -7.12012 0 -10.3203c-1.87988 -3.2002 -5.32031 -5.12012 -9 -5.08008h-184.32c-3.67969 -0.0400391 -7.12012 1.87988 -9 5.08008c-1.83984 3.2002 -1.83984 7.12012 0 10.3203
c1.87988 3.19922 5.32031 5.11914 9 5.0791zM180 57.7598l246.08 -39.96c0.839844 -0.120117 5.04004 0.799805 8.47949 3.48047c3.48047 2.59961 5.68066 6.55957 5.88086 7.55957l2.23926 28.9199h-262.68z"/>
            <glyph glyph-name="shutdown" unicode="&#xf14a;"
                   d="M255.84 427.68c2.75977 0.0400391 5.44043 -1.04004 7.40039 -3s3.04004 -4.63965 3 -7.39941v-225.28c0.0400391 -3.67969 -1.87988 -7.12012 -5.08008 -9c-3.2002 -1.83984 -7.12012 -1.83984 -10.3203 0c-3.2002 1.87988 -5.12012 5.32031 -5.08008 9v225.28
c-0.0800781 5.63965 4.44043 10.2793 10.0801 10.3994zM184.8 415.84c4.95996 -0.160156 9.08008 -3.87988 9.75977 -8.7998c0.720703 -4.95996 -2.23926 -9.63965 -7 -11.2002c-85.1592 -28.5596 -146.6 -108.92 -146.6 -203.84c0 -118.88 96.1602 -215.04 215.04 -215.04
s215.04 96.1602 215.04 215.04c0 94.9199 -61.4404 175.28 -146.6 203.84c-5.40039 1.83984 -8.28027 7.64062 -6.48047 13c1.7998 5.36035 7.59961 8.24023 12.96 6.44043c93.3604 -31.3203 160.6 -119.521 160.6 -223.28c0 -129.96 -105.56 -235.52 -235.52 -235.52
s-235.52 105.56 -235.52 235.52c0 103.76 67.2393 191.96 160.6 223.28c1.16016 0.399414 2.43945 0.599609 3.71973 0.55957z"/>
            <glyph glyph-name="home" unicode="&#xf128;"
                   d="M254.08 447.36c3.43945 0.599609 6.91992 -0.640625 9.28027 -3.2002l244.8 -254.72c3.87988 -4.16016 3.67969 -10.6807 -0.480469 -14.5605s-10.6797 -3.67969 -14.5596 0.480469l-32.3203 33.5996v-272.96h-409.6v272.96l-32.3203 -33.5996
c-3.87988 -4.16016 -10.3994 -4.36035 -14.5596 -0.480469s-4.36035 10.4004 -0.480469 14.5605l244.8 254.72c1.44043 1.59961 3.32031 2.71973 5.44043 3.2002zM256 422.4l-184.32 -192v-273.92h112.641v215.039h143.359v-215.039h112.641v273.92zM358.4 396.8h61.4395
v-95.04l-20.4795 21.4404v53.1201h-20.4805v-31.6807l-20.4795 21.1201v31.04zM204.8 151.04v-194.56h102.4v194.56h-102.4z"/>
            <glyph glyph-name="calendar" unicode="&#xf117;"
                   d="M96 416h32v-32h224v32h32v-32h16c26.375 0 48 -21.625 48 -48v-288c0 -26.375 -21.625 -48 -48 -48h-320c-26.375 0 -48 21.625 -48 48v288c0 26.375 21.625 48 48 48h16v32zM80 352c-9 0 -16 -7 -16 -16v-48h352v48c0 9 -7 16 -16 16h-16v-32h-32v32h-224v-32h-32v32
h-16zM64 256v-208c0 -9 7 -16 16 -16h320c9 0 16 7 16 16v208h-352zM160 224h32v-32h-32v32zM224 224h32v-32h-32v32zM288 224h32v-32h-32v32zM352 224h32v-32h-32v32zM96 160h32v-32h-32v32zM160 160h32v-32h-32v32zM224 160h32v-32h-32v32zM288 160h32v-32h-32v32z
M352 160h32v-32h-32v32zM96 96h32v-32h-32v32zM160 96h32v-32h-32v32zM224 96h32v-32h-32v32z"/>
            <glyph glyph-name="attach" unicode="&#xf103;"
                   d="M388.308 407.385c7.69238 0.230469 15.4619 -1 23.3848 -3.07715c15.8457 -4.07715 31.4619 -13 45.5381 -27.0771c12.3076 -12.2305 37 -29.2305 46.1543 -59.6924c4.61523 -15.2305 4.30762 -33.6152 -3.07715 -52.3076s-21.3848 -38 -43.0771 -59.6924
c-81.6924 -81.6924 -144.385 -144.384 -178.461 -178.461c-32.5391 -32.5391 -65.6924 -58.7695 -104 -67.0771s-79.1543 5.23047 -116.924 43.0771c-37.8457 37.8457 -55.6914 81.3848 -51.0762 125.538c4.61523 44.1543 29.6924 86.9229 69.5381 126.77
c45 44.9229 135.385 126.77 135.385 126.77c5 5.53809 12.7695 7.8457 20 5.76855c7.15332 -2 12.6152 -7.92285 14 -15.3076s-1.53809 -14.9229 -7.53809 -19.3848c0 0 -90.3086 -82.9229 -133.539 -126.153c-35.7695 -35.7695 -55.1533 -70.3076 -58.4609 -102.154
c-3.30859 -31.8457 7.76855 -62.5381 39.3838 -94.1533c31.6162 -31.6152 55.7695 -37.5391 81.2314 -32c25.4609 5.53809 54.0762 25.7686 84.3076 56c34.0771 34.0762 96.7686 96.7686 178.461 178.461c19.1543 19.1543 29.2314 35.0771 33.8467 46.7695
s4.61523 18.7695 2.46094 25.8457c-4.30762 14.2314 -20.7686 28.2314 -36.3076 43.6924c-20.7686 20.7695 -33.6924 22.0771 -51.6924 16c-18 -6.07617 -40.8457 -24.2305 -64.6152 -48l-162.461 -162.461c-10 -10 -16.2314 -21.4619 -17.8467 -31.3848
s-0.460938 -18.6152 9.84668 -28.9229c9.92285 -9.92383 18.9229 -11.1543 29.5381 -9.23145c10.6152 1.92383 22.3076 8.76953 30.7695 17.2314l178.461 178.461c4.76953 5.84668 12.3848 8.53906 19.7695 6.84668c7.30762 -1.69238 13.0771 -7.46191 14.7695 -14.7695
c1.69238 -7.38477 -1 -15 -6.84668 -19.7695l-178.461 -178.461c-13.3848 -13.3848 -30.8467 -24.6152 -51.6924 -28.3076c-20.8467 -3.69238 -45.5391 1.8457 -64 20.3076c-18 18.0771 -24.3076 41.9229 -20.9229 62.7686c3.38379 20.8467 14.4609 38.4619 28.9229 52.9238
l162.461 162.461c25.1543 25.1543 50.4619 47.9238 80 57.8467c7.38477 2.46094 15.0771 4.07715 22.7695 4.30762z"/>
            <glyph glyph-name="plus-filled" unicode="&#xf101;"
                   d="M256 417.28c124.24 0 225.28 -101.04 225.28 -225.28s-101.04 -225.28 -225.28 -225.28s-225.28 101.04 -225.28 225.28s101.04 225.28 225.28 225.28zM368.64 181.76v20.4805h-102.399v102.399h-20.4805v-102.399h-102.399v-20.4805h102.399v-102.399h20.4805v102.399
h102.399z"/>
            <glyph glyph-name="help" unicode="&#xf110;"
                   d="M256 424.615c128.462 0 232.615 -104.153 232.615 -232.615s-104.153 -232.615 -232.615 -232.615s-232.615 104.153 -232.615 232.615s104.153 232.615 232.615 232.615zM254.923 49.9229c18.5391 0 33.2314 14.6152 33.2314 33.1543
c0 18.5381 -14.7695 33.1533 -33.2314 33.1533c-18.5381 0 -33.1533 -14.6152 -33.1533 -33.1533c0 -18.5391 14.6152 -33.1543 33.1533 -33.1543zM303.77 200.23c24.2305 21.1543 34.5381 38.1543 34.4609 66.2314c0 45.3838 -36.3848 64.2305 -78.0762 64.2305
c-42.8467 0 -67.4619 -24.6152 -67.4619 -48.0771c0 -13.8457 8.69238 -24.0771 18.9229 -24.0771c9.07715 0 22.9229 5.46191 21.3076 19.2314c-2.69238 21.8457 5.61523 30.9229 24.1543 30.9229c20.1533 0 28.0771 -11.0771 28.0771 -35.3076
c0 -63.0771 -40.7695 -70.4619 -40.7695 -113.154v-8.8457h24.2305c0 8.76953 -2.76953 15.7695 13.5391 30.0771z"/>
            <glyph glyph-name="edit-property-2" unicode="&#xf12b;"
                   d="M96 384h320c17.6504 0 32 -14.3496 32 -32v-275.2l-12.7998 12.7998v217.601c-3.52539 0 -6.40039 2.875 -6.40039 6.39941c0 3.52539 2.875 6.40039 6.40039 6.40039v32c0 10.5752 -8.625 19.2002 -19.2002 19.2002h-320c-10.5752 0 -19.2002 -8.625 -19.2002 -19.2002
v-32c3.52539 0 6.40039 -2.875 6.40039 -6.40039c0 -3.52441 -2.875 -6.39941 -6.40039 -6.39941v-294.4h281.601l12.7998 -12.7998h-307.2v352c0 17.6504 14.3496 32 32 32zM102.4 320c3.52441 0 6.39941 -2.875 6.39941 -6.40039
c0 -3.52441 -2.875 -6.39941 -6.39941 -6.39941c-3.52539 0 -6.40039 2.875 -6.40039 6.39941c0 3.52539 2.875 6.40039 6.40039 6.40039zM128 320c3.52539 0 6.40039 -2.875 6.40039 -6.40039c0 -3.52441 -2.875 -6.39941 -6.40039 -6.39941
s-6.40039 2.875 -6.40039 6.39941c0 3.52539 2.875 6.40039 6.40039 6.40039zM153.6 320c3.52539 0 6.40039 -2.875 6.40039 -6.40039c0 -3.52441 -2.875 -6.39941 -6.40039 -6.39941c-3.52441 0 -6.39941 2.875 -6.39941 6.39941c0 3.52539 2.875 6.40039 6.39941 6.40039z
M179.2 320c3.52441 0 6.39941 -2.875 6.39941 -6.40039c0 -3.52441 -2.875 -6.39941 -6.39941 -6.39941c-3.52539 0 -6.40039 2.875 -6.40039 6.39941c0 3.52539 2.875 6.40039 6.40039 6.40039zM204.8 320c3.52539 0 6.40039 -2.875 6.40039 -6.40039
c0 -3.52441 -2.875 -6.39941 -6.40039 -6.39941c-3.52441 0 -6.39941 2.875 -6.39941 6.39941c0 3.52539 2.875 6.40039 6.39941 6.40039zM230.4 320c3.52441 0 6.39941 -2.875 6.39941 -6.40039c0 -3.52441 -2.875 -6.39941 -6.39941 -6.39941
c-3.52539 0 -6.40039 2.875 -6.40039 6.39941c0 3.52539 2.875 6.40039 6.40039 6.40039zM256 320c3.52539 0 6.40039 -2.875 6.40039 -6.40039c0 -3.52441 -2.875 -6.39941 -6.40039 -6.39941s-6.40039 2.875 -6.40039 6.39941c0 3.52539 2.875 6.40039 6.40039 6.40039z
M281.6 320c3.52539 0 6.40039 -2.875 6.40039 -6.40039c0 -3.52441 -2.875 -6.39941 -6.40039 -6.39941c-3.52441 0 -6.39941 2.875 -6.39941 6.39941c0 3.52539 2.875 6.40039 6.39941 6.40039zM307.2 320c3.52441 0 6.39941 -2.875 6.39941 -6.40039
c0 -3.52441 -2.875 -6.39941 -6.39941 -6.39941c-3.52539 0 -6.40039 2.875 -6.40039 6.39941c0 3.52539 2.875 6.40039 6.40039 6.40039zM332.8 320c3.52539 0 6.40039 -2.875 6.40039 -6.40039c0 -3.52441 -2.875 -6.39941 -6.40039 -6.39941
c-3.52441 0 -6.39941 2.875 -6.39941 6.39941c0 3.52539 2.875 6.40039 6.39941 6.40039zM358.4 320c3.52441 0 6.39941 -2.875 6.39941 -6.40039c0 -3.52441 -2.875 -6.39941 -6.39941 -6.39941c-3.52539 0 -6.40039 2.875 -6.40039 6.39941
c0 3.52539 2.875 6.40039 6.40039 6.40039zM384 320c3.52539 0 6.40039 -2.875 6.40039 -6.40039c0 -3.52441 -2.875 -6.39941 -6.40039 -6.39941s-6.40039 2.875 -6.40039 6.39941c0 3.52539 2.875 6.40039 6.40039 6.40039zM409.6 320
c3.52539 0 6.40039 -2.875 6.40039 -6.40039c0 -3.52441 -2.875 -6.39941 -6.40039 -6.39941c-3.52441 0 -6.39941 2.875 -6.39941 6.39941c0 3.52539 2.875 6.40039 6.39941 6.40039zM153.6 252.8c5.30078 0 9.60059 -4.2998 9.60059 -9.59961
s-4.2998 -9.60059 -9.60059 -9.60059c-5.2998 0 -9.59961 4.30078 -9.59961 9.60059s4.2998 9.59961 9.59961 9.59961zM185.6 249.6h179.2v-12.7998h-179.2v12.7998zM153.6 201.6c5.30078 0 9.60059 -4.2998 9.60059 -9.59961s-4.2998 -9.59961 -9.60059 -9.59961
c-5.2998 0 -9.59961 4.2998 -9.59961 9.59961s4.2998 9.59961 9.59961 9.59961zM185.6 198.4h179.2v-12.8008h-179.2v12.8008zM276.875 171.125l82.2246 -31.625l104.926 -104.925l35.0498 -35.0254l3.4502 -3.4502c12.5996 -12.5996 12.5996 -33.1992 0 -45.7998
l-4.8252 -4.7998c-12.6006 -12.5996 -33.2002 -12.5996 -45.7998 0l-3.4502 3.4248l-35.0254 35.0254v0.0244141l-103.975 103.95l-0.950195 0.975586zM153.6 150.4c5.30078 0 9.60059 -4.30078 9.60059 -9.60059s-4.2998 -9.59961 -9.60059 -9.59961
c-5.2998 0 -9.59961 4.2998 -9.59961 9.59961s4.2998 9.60059 9.59961 9.60059zM185.6 147.2h81.4756l4.64941 -12.7998h-86.125v12.7998zM313.05 143.5l-8.5498 -8.5498l13.7002 -35.625c0.125 0.0498047 0.224609 0.0244141 0.375 0.0751953
c2.59961 0.5 5.34961 1.69922 6.4502 2.7998c1.09961 1.0752 2.27441 3.84961 2.7998 6.47461c0.524414 2.60059 0.524414 4.5752 0.524414 4.5752v6.40039h6.40039s1.97461 0 4.5752 0.524414c2.625 0.525391 5.39941 1.7002 6.47461 2.7998
c1.10059 1.10059 2.2998 3.85059 2.7998 6.4502c0.0507812 0.150391 0.0253906 0.225586 0.0751953 0.375zM359.45 121.05c-0.975586 -2.4248 -2.375 -4.89941 -4.5752 -7.125c-4.125 -4.09961 -9.125 -5.52441 -13.0254 -6.2998
c-0.724609 -0.150391 -0.674805 -0.0498047 -1.32422 -0.150391c-0.100586 -0.649414 0 -0.599609 -0.150391 -1.32422c-0.775391 -3.90039 -2.2002 -8.90039 -6.2998 -13.0254c-2.22559 -2.2002 -4.7002 -3.625 -7.125 -4.59961l95.5498 -95.5254l32.5 32.5zM153.6 99.2002
c5.30078 0 9.60059 -4.2998 9.60059 -9.60059c0 -5.2998 -4.2998 -9.59961 -9.60059 -9.59961c-5.2998 0 -9.59961 4.2998 -9.59961 9.59961c0 5.30078 4.2998 9.60059 9.59961 9.60059zM185.6 96h94.2754l4.65039 -12.7998h-98.9258v12.7998zM464.025 16.4746
l-32.5 -32.5244l16.9248 -16.9248l32.5244 32.5244zM490 -9.5l-32.5 -32.5l3.47461 -3.47461c7.67578 -7.67578 19.9756 -7.67578 27.6758 0l4.82422 4.84961c7.7002 7.6748 7.7002 19.9746 0 27.6504z"/>
            <glyph glyph-name="edit-property-3" unicode="&#xf13e;"
                   d="M28.7998 448h392.96c15.7207 0 28.7998 -13.0801 28.7998 -28.7998v-51.2002c0.0800781 -0.639648 0.0800781 -1.28027 0 -1.91992v-143.36c0.0400391 -3.67969 -1.87988 -7.12012 -5.0791 -9c-3.2002 -1.83984 -7.12012 -1.83984 -10.3203 0
c-3.2002 1.87988 -5.12012 5.32031 -5.08008 9v133.12h-409.6v-307.2h225.279c3.68066 0.0400391 7.12012 -1.87988 9 -5.08008c1.83984 -3.19922 1.83984 -7.11914 0 -10.3193c-1.87988 -3.2002 -5.31934 -5.12012 -9 -5.08008h-235.52
c-5.64062 0 -10.2402 4.59961 -10.2402 10.2402v327.68c-0.0800781 0.639648 -0.0800781 1.28027 0 1.91992v51.2002c0 15.7197 13.0801 28.7998 28.7998 28.7998zM28.7998 427.52c-4.75977 0 -8.31934 -3.55957 -8.31934 -8.31934v-42.8799h409.6v42.8799
c0 4.75977 -3.56055 8.31934 -8.32031 8.31934h-392.96zM71.6797 294.4h40.96v-20.4805h-40.96v20.4805zM143.36 294.4h235.52v-20.4805h-235.52v20.4805zM71.6797 243.2h40.96v-20.4805h-40.96v20.4805zM143.36 243.2h235.52v-20.4805h-235.52v20.4805zM470.08 192.96
c10.7598 0 21.5596 -3.95996 29.7598 -12.1602c16.4004 -16.3994 16.4004 -43.1201 0 -59.5195l-1.28027 -0.959961v-0.320312c-0.639648 -1.48047 -1.63965 -2.7998 -2.87988 -3.83984l-161.92 -160.641c-1.2002 -1.31934 -2.75977 -2.31934 -4.47949 -2.87988
l-61.4404 -16.3193c-3.59961 -0.959961 -7.39941 0.0800781 -10 2.71973c-2.59961 2.67969 -3.51953 6.51953 -2.47949 10.0801l17.2793 61.4395c0.560547 1.7207 1.56055 3.28027 2.87988 4.48047l158.08 158.08l-0.319336 0.320312l7.04004 7.35938
c8.19922 8.2002 19 12.1602 29.7598 12.1602zM71.6797 192h40.96v-20.4805h-40.96v20.4805zM143.36 192h235.52v-20.4805h-235.52v20.4805zM448 158.72l-156.16 -156.479l-0.320312 -1.28027l30.0801 -29.1201l157.12 156.16zM71.6797 140.8h40.96v-20.4795h-40.96v20.4795z
M143.36 140.8h194.56v-20.4795h-194.56v20.4795z"/>
            <glyph glyph-name="eye" unicode="&#xf105;"
                   d="M256 341.333c128 0 226.417 -130.25 230.667 -136.666c6.41602 -8.5 6.41602 -16.834 0 -25.334c-4.25 -6.41602 -102.667 -136.666 -230.667 -136.666s-226.417 130.25 -230.667 136.666c-6.41602 8.5 -6.41602 16.834 0 25.334
c4.25 6.41602 102.667 136.666 230.667 136.666zM256 298.667c-59.75 0 -106.667 -46.917 -106.667 -106.667s46.917 -106.667 106.667 -106.667s106.667 46.917 106.667 106.667s-46.917 106.667 -106.667 106.667zM256 245.333c29.417 0 53.333 -23.916 53.333 -53.333
s-23.916 -53.333 -53.333 -53.333s-53.333 23.916 -53.333 53.333s23.916 53.333 53.333 53.333z"/>
            <glyph glyph-name="user-group-man-man" unicode="&#xf121;"
                   d="M203.52 402.88h0.320312c22.3604 0 41.7197 -5.24023 52.4805 -19.2002c8.43945 -1.71973 15.96 -4.63965 22.3994 -8.63965c14.1201 11 33.4004 17.1602 58.2402 17.5996c18.04 0 33.4404 -4.83984 43.2002 -15.6797c15.04 -2.67969 26.96 -10.0801 34.2402 -20.1602
c7.67969 -10.5996 10.8398 -23.2803 11.8398 -35.8398c1.75977 -22.7998 -3.44043 -44.6797 -7.68066 -58.5596c3.84082 -5.16016 6.88086 -11.4404 5.76074 -20.8008v-0.319336c-1.32031 -10.7998 -4.24023 -18.4004 -8.64062 -24
c-2.16016 -2.76074 -5 -3 -7.67969 -4.48047c-1.55957 -8.95996 -4.04004 -17.7998 -7.67969 -25.2803c-2.16016 -4.39941 -4.60059 -8.47949 -7.04004 -11.8398c-0.919922 -1.2793 -2.52051 -2.08008 -3.52051 -3.19922
c-0.0800781 -10.2402 0.120117 -19 0.959961 -29.7607c2.60059 -6.2002 8.48047 -11.4395 18.8799 -16.6396c10.7607 -5.40039 24.9199 -10.0801 39.3604 -16.3203s29.3604 -13.7998 41.2803 -25.9199s20.4395 -29.0801 21.7598 -50.8799l0.639648 -10.8799h-116.8
c7.67969 -12.0801 12.6797 -26.7598 13.7598 -44.4805l0.640625 -10.8799h-410.88l0.639648 10.8799c1.51953 25.4805 11.3604 44.8008 25.2803 58.8809c13.9199 14.0791 31.5195 23.0391 48.6396 30.3994s34.04 13.3604 47.04 19.8398
c12.5996 6.28027 20.3604 12.7607 23.6797 20.7998c1.08008 13.3203 1.04004 23.8408 0.959961 36.4805c-1.35938 1.44043 -3.19922 2.44043 -4.47949 4.16016c-2.83984 3.83984 -5.75977 8.59961 -8.32031 13.7598c-4.47949 8.95996 -7.47949 19.6797 -9.28027 30.4004
c-3.31934 1.67969 -6.87988 2 -9.59961 5.43945c-4.91992 6.28027 -8.40039 15.2402 -9.91992 27.8398c-1.40039 11.5605 2.48047 19.2402 7.36035 24.96c-9.08008 37.3604 -11.8799 73.4805 0.639648 102.08c13.1201 30.04 43.6797 49.3604 91.5195 50.2402zM203.84 382.4
c-42.5596 -0.880859 -62.96 -15.2402 -72.96 -38.0801c-10.04 -22.9199 -8.36035 -56.6406 1.28027 -93.7607l1.91992 -7.35938l-6.71973 -4.16016c0.439453 0.280273 -3.87988 -2.67969 -2.87988 -11.2002c1.19922 -10.04 3.59961 -15.2402 5.43945 -17.5996
c1.83984 -2.36035 2.7998 -2.24023 2.87988 -2.24023l8.64062 -0.639648l0.959961 -8.32031c0.919922 -8.75977 4.39941 -19.6797 8.63965 -28.1602c2.12012 -4.24023 4.47949 -7.95996 6.40039 -10.5596c1.91992 -2.60059 4.11914 -4 3.19922 -3.52051l5.44043 -2.87988
v-6.08008c0 -14.8398 0.599609 -27 -0.959961 -44.1602l-0.639648 -2.55957c-5.84082 -15.7197 -19.6406 -25.5205 -34.5605 -32.96c-14.9199 -7.44043 -31.8799 -12.9199 -48 -19.8398s-31 -15.2002 -41.9199 -26.2402
c-8.67969 -8.75977 -14.0801 -20.4004 -16.96 -34.8799h363.52c-2.87988 14.5195 -8.31934 26.1201 -16.96 34.8799c-0.319336 0.320312 -0.639648 0.639648 -0.959961 0.959961c-0.0400391 0.0400391 -0.279297 -0.0400391 -0.319336 0
c-0.839844 0.519531 -1.60059 1.16016 -2.24023 1.91992c-0.560547 0.360352 -1.12012 0.799805 -1.59961 1.28027c-0.0400391 0.0400391 0.0390625 0.279297 0 0.319336c-10.2002 8.80078 -22.7607 15.8408 -36.4805 21.7607c-16.04 6.91992 -33.1201 12.3994 -48 19.8398
c-14.8799 7.43945 -28.4004 17.2402 -34.2402 32.96l-0.639648 1.28027v1.2793c-1.56055 17.1602 -0.959961 29.3203 -0.959961 44.1602v6.08008l5.43945 2.87988c-1 -0.519531 1 0.919922 2.88086 3.52051c1.87988 2.59961 4 6.31934 6.0791 10.5596
c4.12012 8.48047 7.68066 19.2803 8.64062 28.1602l0.959961 8.32031l8.63965 0.639648c0.0800781 0 1.04004 -0.120117 2.87988 2.24023c1.83984 2.35938 4.24023 7.55957 5.44043 17.5996c1.04004 8.52051 -3.32031 11.4805 -2.87988 11.2002l-7.04004 4.16016l2.55957 8
c4.44043 13.3994 11.5205 42 9.60059 66.5596c-0.959961 12.2803 -4.16016 23.4004 -9.91992 31.3604c-5.76074 7.95996 -13.9209 13.7197 -28.1602 15.6797l-4.7998 0.640625l-2.56055 4.15918c-3.7998 6.68066 -17.1602 12.7207 -37.7598 12.8008h-0.320312z
M336.96 372.16c-19.5195 -0.400391 -33.2402 -4.48047 -42.8799 -10.8799c0.0400391 -0.0800781 -0.0400391 -0.240234 0 -0.320312c8.83984 -12.2002 12.5996 -26.8799 13.7598 -41.5996c2.12012 -26.96 -4.28027 -53.2002 -9.28027 -69.4404
c4.64062 -5.71973 8.40039 -13.1201 7.04004 -24.3203c-1.51953 -12.5996 -5 -21.5596 -9.91992 -27.8398c-2.63965 -3.35938 -6.08008 -3.75977 -9.2793 -5.43945c-1.76074 -10.6807 -4.91992 -21.4404 -9.28027 -30.4004c-2.52051 -5.16016 -5.2002 -9.87988 -8 -13.7598
c-1.24023 -1.71973 -3.16016 -2.71973 -4.48047 -4.16016c-0.0800781 -12.7598 -0.15918 -23.3203 0.959961 -36.7998c3.40039 -7.91992 11.2402 -14.2402 23.6807 -20.4805c12.96 -6.47949 29.6797 -12.4795 46.7197 -19.8398
c14.4404 -6.24023 29 -13.6396 41.5996 -24.3203h111.36c-2.51953 10.96 -6.71973 20.04 -13.4404 26.8809c-8.91992 9.04004 -21.1191 15.6396 -34.5596 21.4395s-27.6396 10.6006 -40.3203 16.96c-12.6797 6.36035 -24.5996 14.6797 -29.7598 28.4805l-0.639648 1.2793
v1.28027c-1.32031 14.5605 -0.959961 25 -0.959961 37.4404v6.08008l5.43945 2.55957s-0.0400391 0.280273 0 0.320312h0.320312c0.360352 0.399414 1 1.31934 1.91992 2.55957c1.52051 2.08008 3.08008 5.16016 4.7998 8.64062c3.40039 7 6.60059 15.8398 7.36035 23.0391
l0.639648 8.32031l8.64062 0.640625c-0.360352 -0.0400391 -0.0400391 -0.400391 1.2793 1.2793c1.32031 1.68066 3.48047 5.7998 4.48047 14.0801c0.799805 6.60059 -2.83984 8.56055 -1.91992 8l-7.04004 4.16016l2.55957 7.67969
c3.68066 11.1602 9.60059 35.3604 8 55.6807c-0.799805 10.1592 -3.39941 19.2393 -8 25.5996c-4.59961 6.36035 -11.0801 10.5596 -22.7197 12.1602l-4.7998 0.959961l-2.56055 4.16016c-2.71973 4.7998 -13.3594 9.83984 -30.3994 9.91992h-0.320312z"/>
            <glyph glyph-name="contacts" unicode="&#xf12e;"
                   d="M254.72 414.08h0.320312c22.5996 0 42.2803 -5.67969 53.1201 -20.1602c16.0801 -3.47949 28.8799 -11.04 36.7998 -22.0801c8.75977 -12.2002 12.6396 -26.8799 13.7598 -41.5996c2.04004 -26.7998 -4.2793 -53.04 -9.59961 -69.4404
c4.83984 -5.91992 7.95996 -13.7998 7.04004 -24.6396c-1.16016 -12.5605 -4.04004 -21.7197 -8.95996 -28.1602c-2.48047 -3.24023 -6.08008 -3.44043 -9.28027 -5.12012c-2.40039 -13.5996 -7.55957 -27.1201 -13.7598 -37.7598
c-0.400391 -1.7998 -1.28027 -3.48047 -2.56055 -4.7998c0 0 -0.599609 -0.560547 -0.639648 -0.640625c-0.0800781 -0.120117 -0.240234 -0.199219 -0.320312 -0.319336c-3.23926 -4.91992 -5.12012 -9.87988 -5.12012 -15.3604
c0 -8.59961 0.160156 -16.2402 0.960938 -25.9199c3.43945 -8.04004 11.3594 -14.4805 24 -20.7998c13.0391 -6.52051 29.96 -12.4404 47.0391 -19.8398c17.0801 -7.40039 34.4805 -16.2402 48.3203 -30.4004s23.5605 -33.6797 24.96 -59.2002l0.640625 -10.8799h-410.881
l0.640625 10.8799c1.39941 25.5205 11.3594 45.0801 25.2803 59.2002c13.9199 14.1201 31.2393 23 48.3193 30.4004c17.0801 7.39941 33.8799 13.3594 46.7197 19.8398c12.2803 6.2002 19.9609 12.3994 23.04 20.1602c0.84082 8.15918 0.959961 15.4795 0.959961 23.3594
c0 7.40039 -1.59961 14.0801 -4.7998 18.8799c-0.239258 0.280273 -1.2793 1.60059 -1.2793 1.60059c-0.959961 1.23926 -1.60059 2.63965 -1.9209 4.16016c-6.35938 10.4795 -11.9199 23.7998 -14.3994 37.7598c-2.7998 1.67969 -6.04004 1.83984 -8.32031 4.7998
c-4.75977 6.24023 -8.51953 15.04 -10.2402 27.5195v0.640625c-1 11.7998 2.9209 19.6797 7.68066 25.2803c-8.87988 37.4395 -11.4805 73.4795 0.959961 102.079c13.0801 30.04 43.4795 49.4805 91.5195 50.5605zM255.04 393.6
c-42.8398 -1.04004 -63 -15.5195 -72.96 -38.3994c-9.95996 -22.96 -8.48047 -56.7598 0.959961 -94.0801l1.59961 -7.04004l-5.75977 -4.16016c0.799805 0.560547 -4 -3.75977 -3.83984 -11.5195c0.0400391 -0.160156 -0.0400391 -0.160156 0 -0.320312v-0.320312
c1.40039 -9.39941 3.95996 -14.9199 5.75977 -17.2793c0.919922 -1.24023 1.87988 -1.76074 2.24023 -1.9209h8.32031l0.959961 -8.95996c1.75977 -13.1191 8.67969 -28.3994 14.7197 -37.1191c0.0400391 -0.0800781 -0.0400391 -0.240234 0 -0.320312
c1.44043 -1.75977 6.51953 -8.04004 15.04 -15.3604c9.83984 -8.43945 22.6396 -16 33.9199 -16c11.3604 0 24.04 7.2002 33.5996 15.3604c5.76074 4.91992 9.80078 9.04004 12.4805 12.1602c0.55957 0.959961 1 2 1.59961 2.87988h0.320312
c5.87988 8.39941 12.6396 25.1201 14.4004 38.3994l1.2793 8.95996h8.95996c-0.359375 0 0.520508 -0.319336 2.24023 1.9209c1.67969 2.19922 4.16016 7.63965 5.12012 17.2793v0.320312c0.400391 7.51953 -2.95996 10.9199 -2.87988 11.2002l-8 4.16016l3.2002 8.63965
c4.67969 13.1201 11.7998 41.96 9.91992 66.5596c-0.919922 12.2803 -4.2002 23.4004 -9.91992 31.3604c-5.7207 7.95996 -13.4404 13.4004 -27.5205 15.3604l-5.12012 0.639648l-2.55957 4.48047c-4.24023 7.2793 -17.3203 13.0391 -37.7598 13.1191h-0.320312zM216 135.36
c0 -6.68066 -0.0800781 -13.6807 -0.959961 -21.4404l-0.639648 -1.91992c-1.64062 -4.83984 -4.08008 -8.95996 -7.04004 -12.7998c0 0 2.43945 -7.04004 9.91992 -14.7197c7.47949 -7.68066 19 -15.3604 38.7197 -15.3604c19.7998 0 30.9199 7.36035 38.0801 14.7197
c7.16016 7.36035 9.59961 14.0801 9.59961 14.0801c0.0800781 0.44043 0.200195 0.879883 0.320312 1.28027c-3 3.75977 -5.55957 7.75977 -7.36035 12.4795l-0.639648 1.28027v1.28027c-0.719727 7.83984 -0.919922 14.2402 -0.959961 20.4795
c-10.5205 -7.67969 -23.6797 -14.3994 -39.04 -14.3994c-15.6797 0 -29.2002 7.08008 -40 15.04zM320 85.1201c-2.2002 -4.24023 -5.59961 -9.60059 -11.2002 -15.3604c-10.2402 -10.5596 -27.5596 -21.1201 -52.7998 -21.1201c-25.3203 0 -43 10.6807 -53.4404 21.4404
c-5.0791 5.24023 -8.59961 10.5996 -10.8799 14.7197c-3.43945 -2.24023 -7.19922 -4.2002 -10.8799 -6.08008c-14.7998 -7.47949 -31.5996 -13.2002 -47.6797 -20.1602s-31.3604 -14.8398 -42.2402 -25.9199c-8.67969 -8.83984 -13.8398 -20.5996 -16.6396 -35.1992h363.52
c-2.7998 14.5996 -8 26.3594 -16.6396 35.1992c-10.8398 11.0801 -25.8398 18.96 -41.9199 25.9199s-33.04 12.7207 -48 20.1602c-3.87988 1.91992 -7.60059 4.08008 -11.2002 6.40039z"/>
            <glyph glyph-name="menu" unicode="&#xf109;"
                   d="M32 384h416v-32h-416v32zM32 224h416v-32h-416v32zM32 64h416v-32h-416v32z"/>
            <glyph glyph-name="read-message" unicode="&#xf14f;"
                   d="M256 448c10.7197 0 30.4004 -1.83984 47.6797 -16.3203c9.04004 -7.55957 59.6807 -52.1992 108.801 -95.6797c49.1191 -43.4805 96 -85.1201 96 -85.1201c2.23926 -1.91992 3.51953 -4.71973 3.51953 -7.67969v-296.96c0 -5.64062 -4.59961 -10.2402 -10.2402 -10.2402
h-491.52c-5.64062 0 -10.2402 4.59961 -10.2402 10.2402v296.96c0 2.95996 1.28027 5.75977 3.51953 7.67969c0 0 47.3203 42.1201 96.6406 85.7598c49.3203 43.6406 99.7598 88 108.16 95.04c17.2793 14.4404 36.96 16.3203 47.6797 16.3203zM256 427.52
c-8.40039 0 -22.5195 -1.43945 -34.5596 -11.5195c-6.44043 -5.36035 -58.2002 -51.1201 -107.521 -94.7197c-47.5195 -42 -90.1201 -79.6406 -93.4395 -82.5605v-0.639648l61.4395 -48.6396v74.2393c-0.0800781 5 3.44043 9.32031 8.32031 10.2402h0.959961h0.959961
h327.68c5.64062 0 10.2402 -4.59961 10.2402 -10.2402v-74.2393l61.4395 48.6396v0.639648c-3.2793 2.91992 -45.4795 40.0801 -92.7998 81.9199c-49.1201 43.4404 -100.84 89.2402 -108.16 95.3604c-12.04 10.0801 -26.1191 11.5195 -34.5596 11.5195zM102.4 253.44
v-80.3203l64.96 -51.2002c12.96 10.1201 30.6396 24.04 37.1201 29.1201h-50.8809c-5.63965 -0.520508 -10.6797 3.63965 -11.1992 9.28027c-0.520508 5.63965 3.63965 10.6797 9.2793 11.1992h0.959961h0.959961h204.801c3.67969 0.0400391 7.11914 -1.87988 9 -5.0791
c1.83984 -3.2002 1.83984 -7.12012 0 -10.3203c-1.88086 -3.2002 -5.32031 -5.12012 -9 -5.08008h-50.8809c6.48047 -5.08008 24.1602 -19 37.1201 -29.1201l64.96 51.2002v80.3203h-307.199zM150.72 222.72h0.959961h0.959961h0.959961h204.801
c3.67969 0.0400391 7.11914 -1.87988 9 -5.08008c1.83984 -3.19922 1.83984 -7.12012 0 -10.3193c-1.88086 -3.2002 -5.32031 -5.12012 -9 -5.08008h-204.801c-5.63965 -0.799805 -10.8799 3.16016 -11.6797 8.7998s3.16016 10.8799 8.7998 11.6797zM20.4805 212.16v-204.8
c15 11.7598 76.1191 59.4395 130.239 101.76zM491.52 212.16l-130.239 -103.04c54.1201 -42.3203 115.239 -90 130.239 -101.76v204.8zM256 151.04c-7.55957 0 -21.3604 -2.16016 -34.5596 -12.4805c-15.1201 -11.7998 -195.801 -153.079 -200.96 -157.119v-24.96h471.039
v24.96c-5.15918 4.04004 -185.84 145.319 -200.96 157.119c-13.1992 10.3203 -27 12.4805 -34.5596 12.4805z"/>
            <glyph glyph-name="back-filled" unicode="&#xf135;"
                   d="M358 417.48c8.44043 0.239258 16.1602 -4.7207 19.4805 -12.4805c3.2793 -7.7998 1.43945 -16.7998 -4.60059 -22.6797l-190.32 -190.32l190.32 -190.32c5.36035 -5.12012 7.52051 -12.7598 5.63965 -19.96c-1.87988 -7.16016 -7.47949 -12.7598 -14.6396 -14.6396
c-7.2002 -1.87988 -14.8398 0.280273 -19.96 5.63965l-204.8 204.8c-8 8 -8 20.9609 0 28.9609l204.8 204.8c3.71973 3.7998 8.75977 6.04004 14.0801 6.2002z"/>
            <glyph glyph-name="2" unicode="&#xf146;"
                   d="M256 427.52c129.96 0 235.52 -105.56 235.52 -235.52s-105.56 -235.52 -235.52 -235.52s-235.52 105.56 -235.52 235.52s105.56 235.52 235.52 235.52zM256 407.04c-118.88 0 -215.04 -96.1602 -215.04 -215.04s96.1602 -215.04 215.04 -215.04
s215.04 96.1602 215.04 215.04s-96.1602 215.04 -215.04 215.04zM255.04 325.44c2.91992 0.279297 5.83984 -0.720703 8 -2.76074c2.12012 -2 3.32031 -4.83984 3.2002 -7.7998v-220.8l64.3193 64.3203c4.08008 4.08008 10.6406 4.08008 14.7207 0
s4.08008 -10.6406 0 -14.7207l-81.2803 -80.96c-0.959961 -1.2002 -2.16016 -2.2002 -3.51953 -2.87988c-0.800781 -0.439453 -1.68066 -0.759766 -2.56055 -0.959961h-0.639648c-1.08008 -0.160156 -2.12012 -0.160156 -3.2002 0
c-0.320312 0.0800781 -0.639648 0.200195 -0.959961 0.320312h-0.320312c-0.200195 0.0800781 -0.439453 0.200195 -0.639648 0.319336h-0.320312c-0.799805 0.44043 -1.55957 0.960938 -2.24023 1.60059h-0.319336
c-0.240234 0.200195 -0.44043 0.399414 -0.640625 0.639648l-0.639648 0.640625c-0.240234 0.319336 -0.44043 0.639648 -0.639648 0.959961l-80.6406 80.3193c-2.83984 2.64062 -3.95996 6.64062 -2.87988 10.4004c1.08008 3.71973 4.16016 6.51953 8 7.2002
c3.48047 0.759766 7.12012 -0.320312 9.60059 -2.87988l64.3193 -64.3203v220.8c-0.120117 4.87988 3.24023 9.16016 8 10.2402c0.400391 0.120117 0.839844 0.240234 1.28027 0.320312z"/>
            <glyph glyph-name="forward" unicode="&#xf11a;"
                   d="M153.48 407.12c2.7998 0 5.43945 -1.08008 7.35938 -3.08008l204.8 -204.8c4 -4 4 -10.4805 0 -14.4805l-204.8 -204.8c-2.55957 -2.67969 -6.39941 -3.75977 -9.95996 -2.7998c-3.59961 0.919922 -6.39941 3.71973 -7.32031 7.32031
c-0.959961 3.55957 0.120117 7.39941 2.80078 9.95996l197.56 197.56l-197.56 197.56c-3 2.9209 -3.91992 7.32031 -2.36035 11.2002c1.59961 3.83984 5.32031 6.36035 9.48047 6.36035z"/>
            <glyph glyph-name="bulleted-list" unicode="&#xf11d;"
                   d="M40.96 407.04c22.5205 0 40.96 -18.4404 40.96 -40.96c0 -22.5205 -18.4395 -40.96 -40.96 -40.96c-22.5195 0 -40.96 18.4395 -40.96 40.96c0 22.5195 18.4404 40.96 40.96 40.96zM40.96 386.56c-11.4404 0 -20.4795 -9.04004 -20.4795 -20.4795
c0 -11.4404 9.03906 -20.4805 20.4795 -20.4805s20.4805 9.04004 20.4805 20.4805c0 11.4395 -9.04004 20.4795 -20.4805 20.4795zM122.88 376.32h389.12v-20.4805h-389.12v20.4805zM40.96 232.96c22.5205 0 40.96 -18.4404 40.96 -40.96s-18.4395 -40.96 -40.96 -40.96
c-22.5195 0 -40.96 18.4404 -40.96 40.96s18.4404 40.96 40.96 40.96zM40.96 212.48c-11.4404 0 -20.4795 -9.04004 -20.4795 -20.4805s9.03906 -20.4805 20.4795 -20.4805s20.4805 9.04004 20.4805 20.4805s-9.04004 20.4805 -20.4805 20.4805zM122.88 202.24h389.12
v-20.4805h-389.12v20.4805zM40.96 58.8799c22.5205 0 40.96 -18.4395 40.96 -40.96c0 -22.5195 -18.4395 -40.96 -40.96 -40.96c-22.5195 0 -40.96 18.4404 -40.96 40.96c0 22.5205 18.4404 40.96 40.96 40.96zM40.96 38.4004
c-11.4404 0 -20.4795 -9.04004 -20.4795 -20.4805c0 -11.4395 9.03906 -20.4795 20.4795 -20.4795s20.4805 9.04004 20.4805 20.4795c0 11.4404 -9.04004 20.4805 -20.4805 20.4805zM122.88 28.1602h389.12v-20.4805h-389.12v20.4805z"/>
            <glyph glyph-name="upload-2" unicode="&#xf10b;"
                   d="M256 390.5l11.5 -11l112 -112l-23 -23l-84.5 84.5v-265h-32v265l-84.5 -84.5l-23 23l112 112zM112 32h288v-32h-288v32z"/>
            <glyph glyph-name="audio-filled" unicode="&#xf154;"
                   d="M247.68 417.28c13.8398 0 28.8008 -10.6006 28.8008 -33.9199v-378.88c0 -22.1602 -12.04 -37.7607 -29.1201 -37.7607c-6.44043 0 -16.4004 2.48047 -27.2002 13.4404l-118.72 118.399c-6.04004 5.32031 -9.28027 16.4805 -9.28027 24.3203v138.24
c0 7.91992 3.04004 19.1602 9.59961 24.96l119.04 118.72c7.87988 8 17.5605 12.4805 26.8799 12.4805zM392 378.24h0.959961c2 0.160156 4 -0.280273 5.75977 -1.28027c67.6006 -34.1201 113.92 -104.12 113.92 -184.96s-46.3193 -150.84 -113.92 -184.96
c-3.31934 -2.16016 -7.59961 -2.24023 -10.96 -0.200195c-3.39941 2.08008 -5.2793 5.91992 -4.83984 9.87988c0.44043 3.91992 3.08008 7.28027 6.83984 8.56055c60.9199 30.7197 102.4 93.7197 102.4 166.72s-41.4805 136 -102.4 166.72
c-4.2002 1.76074 -6.67969 6.08008 -6.2002 10.6006c0.520508 4.51953 3.95996 8.16016 8.44043 8.91992zM355.52 323.84h0.960938c2.11914 0.200195 4.23926 -0.240234 6.0791 -1.28027c46.4004 -25.04 77.7607 -74.2393 77.7607 -130.56
c0 -56.1602 -31.2803 -105.16 -77.4404 -130.24c-4.95996 -2.75977 -11.2002 -0.959961 -13.9199 4c-2.75977 4.95996 -0.959961 11.2002 4 13.9199c39.7598 21.6006 66.8799 63.8008 66.8799 112.32c0 48.6797 -27.2402 90.7598 -67.2002 112.32
c-4.19922 1.87988 -6.63965 6.31934 -5.95996 10.8398c0.640625 4.55957 4.28027 8.12012 8.83984 8.67969zM30.7197 284.48h46.0801c-3.43945 -8.12012 -5.12012 -16.6406 -5.12012 -23.3604v-138.24c0 -6.75977 1.44043 -15.3203 4.80078 -23.3604h-45.7607
c-17.1602 0 -31.04 13.8809 -31.04 31.04v122.881c0 17.1592 13.8799 31.04 31.04 31.04zM312.64 259.52c1.40039 0.160156 2.80078 0.0800781 4.16016 -0.319336c29.7998 -7.7998 51.8398 -35.0801 51.8398 -67.2002s-22 -59.4004 -51.8398 -67.2002
c-5.47949 -1.39941 -11.0801 1.87988 -12.4795 7.36035c-1.40039 5.47949 1.87988 11.0801 7.35938 12.4795c20.96 5.48047 36.4805 24.6006 36.4805 47.3604s-15.5205 41.8799 -36.4805 47.3604c-4.87988 1.08008 -8.23926 5.51953 -8 10.4795
c0.240234 5 4 9.08008 8.95996 9.67969z"/>
            <glyph glyph-name="icon-2" unicode="&#xf140;"
                   d="M242.56 427.2c13.6406 -0.400391 24.4404 -9.52051 37.7607 -23.3604c0.0800781 -0.0800781 0.239258 0.0800781 0.319336 0v0.320312c4.64062 -4.64062 9.32031 -4.91992 18.5605 -3.2002s20.7998 6.08008 33.5996 6.08008c6.83984 0 13.7998 -2 17.9199 -7.67969
c4.12012 -5.68066 3.44043 -11.9199 2.24023 -16.6406c-2.40039 -9.47949 -7.95996 -17.4395 -11.5195 -23.04l-0.320312 -0.639648l-0.320312 -0.320312c-2.63965 -3.31934 -23.7598 -33.0801 -21.4395 -70.3994c16.04 10.96 40.4395 26.3994 69.4395 26.2393
c12.8799 -0.0791016 26.5605 -3.2793 40.96 -11.1992c3.68066 -1.44043 6.24023 -4.84082 6.52051 -8.80078c0.279297 -3.95996 -1.7207 -7.71973 -5.16016 -9.67969c-3.48047 -1.91992 -7.71973 -1.71973 -10.96 0.560547
c-23.0801 12.6797 -42.4004 10.5596 -59.2002 3.51953c20.0801 -1.40039 42.5596 -8.83984 61.1201 -28.4795c3 -2.52051 4.28027 -6.56055 3.32031 -10.3203c-0.959961 -3.7998 -4.04004 -6.71973 -7.84082 -7.52051c-3.83984 -0.799805 -7.7998 0.680664 -10.1992 3.76074
c-15.8799 16.7598 -34.2803 21.96 -51.5205 22.3994c-5.35938 0.160156 -10.4395 -0.319336 -15.3594 -0.959961c69.8799 -30.8799 130.56 -101.76 130.56 -179.2c0 -50.04 -15.6797 -85.6797 -51.2002 -105.92c-35.5195 -20.2393 -88 -26.2393 -163.84 -26.2393
s-128.32 6 -163.84 26.2393c-35.5205 20.2402 -51.2002 55.8799 -51.2002 105.92c0 40.5605 18.4404 82.2803 45.4404 116.48c24.8799 31.5195 57.2793 56.2002 91.1992 66.5596c0.480469 20.3604 -5.23926 37.4004 -13.1191 49.9199
c-8.7207 13.8809 -17.8008 21.6406 -22.0801 25.9199c-3.7207 3.44043 -7.44043 7.32031 -10.2402 11.8408c-2.83984 4.59961 -5.16016 10.3994 -3.52051 17.2793c0.120117 0.560547 0.44043 1.04004 0.640625 1.60059
c0.0800781 0.200195 0.200195 0.439453 0.319336 0.639648c0.0800781 0.240234 0.200195 0.400391 0.320312 0.639648c0.0800781 0.320312 0.200195 0.640625 0.320312 0.960938c2.63965 4.95996 7.63965 8.87988 13.1201 10.8799
c6.83984 2.51953 15.1201 3.51953 26.5596 3.51953c10.2402 0 19 -0.120117 25.2803 1.28027c6.28027 1.39941 9.83984 3.55957 13.4395 8.63965c4.7207 6.64062 9.60059 11.96 15.04 16c5.44043 4.04004 12.04 6.60059 18.8799 6.40039zM241.92 406.72
c-1.83984 0.0400391 -3.32031 -0.200195 -6.08008 -2.23926c-2.75977 -2.04004 -6.24023 -5.88086 -10.2402 -11.5205h-0.319336c-6.64062 -9.28027 -16 -14.4795 -25.6006 -16.6396c-9.59961 -2.16016 -19.5195 -1.91992 -29.7598 -1.91992
c-8 0 -13.1201 -0.959961 -16.6396 -1.91992c9.47949 -14 19.4395 -22.5205 27.5195 -25.9209c9.56055 -4.04004 15.8398 -2.39941 21.1201 2.56055v-0.320312h0.320312c9.24023 8.71973 16.8398 17.3203 28.7998 19.2002
c6.04004 0.959961 12.6396 -0.759766 18.2402 -4.16016c5.47949 -3.32031 10.1602 -8.24023 15.3594 -14.7197h0.320312c2.91992 -3.52051 5.48047 -4.40039 9.91992 -3.83984c4.44043 0.55957 10.2002 3.55957 15.04 8c11.8398 10.7598 23.04 18 29.7598 23.6797
c3.36035 2.83984 5.48047 5.28027 6.40039 6.71973c0.919922 1.44043 0.759766 1.48047 0.639648 2.24023c-6.75977 -1.04004 -15 -3.2002 -23.6797 -4.7998c-11.4805 -2.12012 -26.0801 -2.40039 -36.7998 8.32031v0.319336h-0.320312
c-12.2002 12.6807 -20.2803 16.8398 -24 16.96zM234.24 347.52c-2.56055 -0.399414 -9.12012 -4.83984 -18.2402 -13.4395c-7.87988 -7.40039 -18.7197 -10.3604 -29.7598 -9.28027c7.47949 -14 13.5195 -31.9199 13.1201 -52.7998
c14.5596 -6.67969 52.4795 -18.8398 99.8398 4.16016c-4.32031 25.4395 1.12012 47.6797 8 64.3203c-1.08008 -0.960938 -2.12012 -1.56055 -3.2002 -2.56055c-7.48047 -6.83984 -16.6797 -11.5596 -26.5596 -12.7998c-9.88086 -1.24023 -20.8408 2.12012 -28.1602 10.8799
h-0.320312v0.320312c-4.44043 5.59961 -7.83984 8.7998 -10.2402 10.2393c-2.39941 1.44043 -3.2002 1.16016 -4.47949 0.959961zM309.76 258.56c-55.7998 -27.6797 -103.16 -11.8799 -120.319 -4.15918c-30.1602 -7.28027 -62.6406 -30.8809 -87.04 -61.7607
c-24.7207 -31.3193 -40.96 -69.7998 -40.96 -104c0 -46.1992 11.3994 -71.6797 40.6396 -88.3193c29.2402 -16.6406 79.2402 -23.3604 153.92 -23.3604s124.68 6.71973 153.92 23.3604c29.2402 16.6396 40.6396 42.1201 40.6396 88.3193c0 74.2402 -70 149.2 -140.8 169.92z
M192.32 189.44h24.6396l39.04 -79.3604l38.0801 79.3604h23.3604l-40 -77.4404h20.7998v-13.7598h-28.1602l-4.16016 -7.36035v-9.28027h32.3203v-13.7598h-32.3203v-39.04h-21.4395v39.04h-31.6807v13.7598h31.6807v9.28027l-4.16016 7.36035h-27.5205v13.7598h20.7998z
"/>
            <glyph glyph-name="icon-3" unicode="&#xf145;"
                   d="M91.9199 417.48c5.56055 0 10.8398 -2.24023 14.7197 -6.2002l219.28 -219.28l-219.28 -219.28c-5.12012 -5.35938 -12.7598 -7.51953 -19.96 -5.63965c-7.16016 1.87988 -12.7598 7.47949 -14.6396 14.6396c-1.87988 7.2002 0.280273 14.8398 5.63965 19.96
l190.32 190.32l-190.32 190.32c-5.95996 5.7998 -7.83984 14.6396 -4.67969 22.3594c3.12012 7.7207 10.5996 12.8008 18.9199 12.8008zM225.08 417.48c5.51953 0 10.7998 -2.24023 14.6797 -6.2002l219.28 -219.28l-219.28 -219.28
c-5.12012 -5.35938 -12.7598 -7.51953 -19.96 -5.63965c-7.16016 1.87988 -12.7598 7.47949 -14.6396 14.6396c-1.87988 7.2002 0.280273 14.8398 5.63965 19.96l190.32 190.32l-190.32 190.32c-5.95996 5.7998 -7.83984 14.6396 -4.67969 22.3594
c3.12012 7.7207 10.5996 12.8008 18.96 12.8008z"/>
            <glyph glyph-name="play" unicode="&#xf136;"
                   d="M397.923 214.538c8.61523 -4.30762 14.1543 -13 14.1543 -22.5381s-5.46191 -18.2305 -14.0771 -22.4619l-262.077 -130c-3.61523 -1.76855 -7.53809 -2.69238 -11.5381 -2.69238c-4.69238 0 -9.30762 1.23145 -13.4619 3.76953
c-7.61523 4.53906 -12.1533 12.6924 -12.1533 21.3848v259.923c0 8.76953 4.53809 16.9229 12.1533 21.4619c7.61523 4.61523 17.0771 5 25 1z"/>
            <glyph glyph-name="literature" unicode="&#xf129;"
                   d="M59.5195 427.52h0.960938h0.959961c78.1592 0 128.64 -15.7998 159.68 -32c15.5195 -8.11914 26.0801 -16.0391 32.96 -22.3994c0.839844 -0.759766 1.2002 -1.2002 1.91992 -1.91992c0.719727 0.719727 1.08008 1.16016 1.91992 1.91992
c6.87988 6.36035 17.4404 14.2803 32.96 22.3994c31.04 16.2002 81.5205 32 159.68 32c5.64062 0 10.2402 -4.59961 10.2402 -10.2393v-51.2002h22.0801c16 0 29.1201 -13.1201 29.1201 -29.1201v-341.12c0 -16 -13.1201 -29.1201 -29.1201 -29.1201h-170.88
c-4.83984 -7.47949 -21.4004 -30.7197 -56 -30.7197s-51.1602 23.2402 -56 30.7197h-170.88c-16 0 -29.1201 13.1201 -29.1201 29.1201v341.12c0 16 13.1201 29.1201 29.1201 29.1201h22.0801v51.2002c-0.0800781 5 3.43945 9.31934 8.31934 10.2393zM71.6797 406.4v-348.16
c70.4404 -1 118.32 -10.3604 147.521 -20.4805c12.3193 -4.2793 19.7598 -8.43945 26.5596 -12.1602v326.08c-0.639648 0.879883 -1.04004 2.04004 -5.43945 6.08008c-5.60059 5.16016 -14.8799 12.6006 -28.8008 19.8398
c-26.4395 13.8008 -70.8398 27.4004 -139.84 28.8008zM440.32 406.4c-69 -1.40039 -113.4 -15 -139.84 -28.8008c-13.9209 -7.23926 -23.2002 -14.6797 -28.8008 -19.8398c-4.39941 -4.04004 -4.7998 -5.2002 -5.43945 -6.08008v-326.08
c6.7998 3.7207 14.2402 7.88086 26.5596 12.1602c29.2002 10.1201 77.0801 19.4805 147.521 20.4805v348.16zM29.1201 345.6c-4.87988 0 -8.63965 -3.71973 -8.63965 -8.63965v-341.12c0 -4.91992 3.75977 -8.63965 8.63965 -8.63965h175.68
c3.68066 0.0400391 7.12012 -1.91992 8.95996 -5.12012c0 0 14.2803 -25.5996 42.2402 -25.5996s42.2402 25.5996 42.2402 25.5996c1.83984 3.2002 5.2793 5.16016 8.95996 5.12012h175.68c4.87988 0 8.63965 3.71973 8.63965 8.63965v341.12
c0 4.91992 -3.75977 8.63965 -8.63965 8.63965h-22.0801v-296.96c0 -5.63965 -4.59961 -10.2393 -10.2402 -10.2393c-75.4395 0 -123.119 -10.04 -151.359 -19.8408c-14.1201 -4.87988 -23.1602 -9.67969 -28.7998 -13.1191c-3.16016 -1.9209 -5 -3 -6.08008 -3.84082
c-0.640625 -0.759766 -1.40039 -1.39941 -2.24023 -1.91992c-1.32031 -1 -2.83984 -1.63965 -4.48047 -1.91992h-0.319336c-3.32031 -0.479492 -6.68066 0.720703 -8.95996 3.2002c-0.680664 0.55957 -2.32031 1.7998 -6.7207 4.48047
c-5.63965 3.43945 -14.6797 8.23926 -28.7998 13.1191c-28.2402 9.80078 -75.9199 19.8408 -151.359 19.8408c-5.64062 0 -10.2402 4.59961 -10.2402 10.2393v296.96h-22.0801z"/>
            <glyph glyph-name="icon-6" unicode="&#xf150;"
                   d="M388.16 407.36c3.12012 0.239258 6.2002 -0.919922 8.32031 -3.2002l80.96 -81.2803c0.239258 -0.200195 0.439453 -0.399414 0.639648 -0.639648h0.320312c0.479492 -0.480469 0.919922 -1.04004 1.2793 -1.60059
c0.120117 -0.199219 0.240234 -0.439453 0.320312 -0.639648l0.320312 -0.320312c0.120117 -0.199219 0.239258 -0.439453 0.319336 -0.639648v-0.320312c0.120117 -0.200195 0.240234 -0.439453 0.320312 -0.639648v-0.320312
c0.120117 -0.200195 0.240234 -0.439453 0.320312 -0.639648v-0.320312v-0.639648c0.160156 -1.08008 0.160156 -2.12012 0 -3.2002c-0.0800781 -0.320312 -0.200195 -0.639648 -0.320312 -0.959961v-0.320312
c-0.0800781 -0.199219 -0.200195 -0.439453 -0.320312 -0.639648c-0.239258 -0.679688 -0.55957 -1.32031 -0.959961 -1.91992c-0.199219 -0.240234 -0.399414 -0.44043 -0.639648 -0.639648c-0.200195 -0.320312 -0.400391 -0.640625 -0.639648 -0.960938
c-0.480469 -0.479492 -1.04004 -0.919922 -1.60059 -1.2793l-80.3193 -80.6406c-4.08008 -4.08008 -10.6406 -4.08008 -14.7207 0s-4.08008 10.6406 0 14.7207l64.3203 64.3193h-323.2c-5.63965 -0.279297 -10.4395 4.12012 -10.7197 9.76074
c-0.280273 5.63965 4.12012 10.4395 9.75977 10.7197h0.959961h323.2l-64.3203 64.3203c-2.83984 2.63965 -3.95996 6.63965 -2.87988 10.3994c1.08008 3.71973 4.16016 6.52051 8 7.2002c0.400391 0.120117 0.839844 0.240234 1.28027 0.320312zM40.96 325.12
c5.63965 0 10.2402 -4.60059 10.2402 -10.2402s-4.60059 -10.2402 -10.2402 -10.2402s-10.2402 4.60059 -10.2402 10.2402s4.60059 10.2402 10.2402 10.2402zM81.9199 325.12c5.63965 0 10.2402 -4.60059 10.2402 -10.2402s-4.60059 -10.2402 -10.2402 -10.2402
s-10.2402 4.60059 -10.2402 10.2402s4.60059 10.2402 10.2402 10.2402zM121.6 161.28c4.44043 0.719727 8.88086 -1.52051 10.8408 -5.60059c2 -4.04004 1.11914 -8.91992 -2.2002 -12l-64.3203 -64.3193h323.2c3.67969 0.0400391 7.12012 -1.87988 9 -5.08008
c1.83984 -3.2002 1.83984 -7.12012 0 -10.3203c-1.87988 -3.2002 -5.32031 -5.12012 -9 -5.08008h-323.2l64.3203 -64.3203c4.08008 -4.0791 4.08008 -10.6396 0 -14.7197s-10.6406 -4.08008 -14.7207 0l-80 80.3203c-0.719727 0.439453 -1.35938 1 -1.91992 1.59961
c-0.119141 0.120117 -0.199219 0.200195 -0.319336 0.320312l-0.320312 0.320312c-0.120117 0.119141 -0.200195 0.199219 -0.320312 0.319336c-0.120117 0.200195 -0.239258 0.44043 -0.319336 0.640625c-0.120117 0.120117 -0.200195 0.199219 -0.320312 0.319336
c-0.120117 0.200195 -0.240234 0.44043 -0.320312 0.640625c-0.679688 1.19922 -1.12012 2.47949 -1.2793 3.83984v0.320312v0.639648v0.959961v0.320312c0.199219 1.23926 0.639648 2.43945 1.2793 3.51953v0.320312
c0.200195 0.240234 0.400391 0.439453 0.640625 0.639648v0.320312c0.199219 0.240234 0.399414 0.439453 0.639648 0.639648c0.200195 0.240234 0.400391 0.44043 0.639648 0.640625v0.319336c0.200195 0.240234 0.400391 0.44043 0.640625 0.640625l0.959961 0.319336
l80.3193 80.6406c1.64062 1.59961 3.80078 2.63965 6.08008 2.87988zM430.08 79.3604c5.63965 0 10.2402 -4.60059 10.2402 -10.2402s-4.60059 -10.2402 -10.2402 -10.2402s-10.2402 4.60059 -10.2402 10.2402s4.60059 10.2402 10.2402 10.2402zM471.04 79.3604
c5.63965 0 10.2402 -4.60059 10.2402 -10.2402s-4.60059 -10.2402 -10.2402 -10.2402s-10.2402 4.60059 -10.2402 10.2402s4.60059 10.2402 10.2402 10.2402z"/>
            <glyph glyph-name="icon-7" unicode="&#xf151;"
                   d="M240 384h32v-265l84.5 84.5l23 -23l-112 -112l-11.5 -11l-11.5 11l-112 112l23 23l84.5 -84.5v265zM112 32h288v-32h-288v32z"/>
            <glyph glyph-name="icon-4" unicode="&#xf148;"
                   d="M216 448h78.7197l1.60059 -8.32031l11.8398 -67.5195c13.4795 -3.91992 26.3594 -9 38.3994 -15.6797l55.04 39.6797l7.36035 5.12012l55.6797 -55.6807l-5.12012 -7.04004l-39.3594 -56.3193c6.59961 -12 12.1201 -24.6807 16 -38.0801l67.2002 -10.8799
l8.63965 -1.28027v-78.7197l-8.32031 -1.60059l-67.8398 -11.8398c-3.83984 -13.3203 -9.12012 -26.1602 -15.6797 -38.0801l40 -55.3594l5.12012 -7.36035l-55.6807 -55.6797l-7.04004 5.12012l-56.3193 39.3594c-12.04 -6.67969 -24.6006 -12.3594 -38.0801 -16.3203
l-11.8398 -67.1992l-1.60059 -8.32031h-78.7197l-1.28027 8.63965l-11.2002 67.2002c-13.5596 3.91992 -26.5996 8.95996 -38.7197 15.6797l-55.3594 -39.0391l-7.04004 -5.12012l-55.6807 55.6797l5.12012 7.04004l39.3604 55.3604
c-6.68066 12.0791 -12.0801 24.9199 -16 38.3994l-66.8799 11.8398l-8.32031 1.60059v78.7197l8.63965 1.28027l66.8799 11.2002c3.96094 13.4795 9.04004 26.3594 15.6807 38.3994l-38.7197 55.6797l-5.12012 7.04004l55.6797 55.6807l7.04004 -5.12012l55.3604 -39.3604
c12.04 6.60059 24.96 11.5205 38.3994 15.3604l10.8799 67.2002zM233.6 427.52l-10.5596 -64l-0.959961 -6.71973l-6.71973 -1.59961c-16.4404 -4.04004 -31.96 -10.4004 -46.0801 -18.8799l-5.76074 -3.52051l-5.43945 4.16016l-52.7998 37.4404l-31.04 -31.04
l37.1201 -53.1201l3.83984 -5.44043l-3.52051 -5.75977c-8.55957 -14.2002 -15.04 -29.8398 -19.1992 -46.4004l-1.60059 -6.39941l-6.71973 -1.28027l-63.6797 -10.5596v-44.1602l63.6797 -11.2002l6.39941 -1.28027l1.60059 -6.39941
c4.12012 -16.5205 10.9199 -31.8799 19.5195 -46.0801l3.2002 -5.76074l-3.83984 -5.43945l-37.4404 -52.4805l31.04 -31.3594l53.1201 37.1201l5.75977 3.83984l5.44043 -3.52051c14.1602 -8.51953 29.6396 -14.7998 46.0801 -18.8799l6.71973 -1.59961l0.959961 -6.71973
l10.5605 -64h44.4795l11.2002 64.3193l1.28027 6.40039l6.39941 1.59961c16.3604 4.16016 31.7607 10.6807 45.7607 19.2002l5.75977 3.51953l5.43945 -3.83984l53.7607 -37.4395l31.04 31.04l-38.0801 53.1201l-3.83984 5.43945l3.19922 5.75977
c8.44043 14.04 14.8398 29.4404 18.8799 45.7607l1.60059 6.39941l6.71973 1.28027l64.6396 11.2002v44.1602l-64.6396 10.5596l-6.39941 1.28027l-1.9209 6.39941c-4.0791 16.3203 -10.4395 31.7207 -18.8799 45.7607l-3.19922 5.75977l3.83984 5.43945l37.4395 53.7607
l-31.3594 31.04l-52.8008 -38.0801l-5.43945 -3.83984l-5.75977 3.51953c-14.0801 8.51953 -29.3203 15.1201 -45.7607 19.2002l-6.71973 1.59961l-0.959961 6.40039l-11.2002 64.3193h-44.1602zM256 284.16c50.7598 0 92.1602 -41.4004 92.1602 -92.1602
s-41.4004 -92.1602 -92.1602 -92.1602s-92.1602 41.4004 -92.1602 92.1602s41.4004 92.1602 92.1602 92.1602zM256 263.68c-39.7197 0 -71.6797 -31.96 -71.6797 -71.6797s31.96 -71.6797 71.6797 -71.6797s71.6797 31.96 71.6797 71.6797s-31.96 71.6797 -71.6797 71.6797z
"/>
            <glyph glyph-name="icon-5" unicode="&#xf149;"
                   d="M131.2 376.32h0.959961h0.959961h102.399v-102.4c0.0400391 -3.67969 -1.87988 -7.12012 -5.0791 -9c-3.2002 -1.83984 -7.12012 -1.83984 -10.3203 0c-3.2002 1.87988 -5.12012 5.32031 -5.08008 9v67.2002l-176.96 -176.96
c-4.08008 -4.08008 -10.6396 -4.08008 -14.7197 0s-4.08008 10.6396 0 14.7197l176.96 176.96h-67.2002c-5.63965 -0.519531 -10.6797 3.64062 -11.2002 9.28027c-0.519531 5.63965 3.63965 10.6797 9.28027 11.2002zM348.16 335.36h143.359v-399.36h-143.359v399.36z
M368.64 314.88v-358.399h102.4v358.399h-102.4zM184.32 202.24h143.359v-266.24h-143.359v266.24zM204.8 181.76v-225.279h102.4v225.279h-102.4zM20.4805 89.5996h143.359v-153.6h-143.359v153.6zM40.96 69.1201v-112.64h102.4v112.64h-102.4z"/>
            <glyph glyph-name="alarm-clock" unicode="&#xf14e;"
                   d="M392.36 427.44c25.1201 -0.800781 50 -10.8008 69.1201 -29.9209c28.7598 -28.7197 36.8799 -70.4395 24.2393 -106.439c-0.639648 -1.71973 -1.12012 -2.67969 -1.2002 -2.91992l-5.67969 -14.6006l-141.399 141.36l14.7197 5.63965
c-0.360352 -0.119141 0.0400391 0.0800781 1.2002 0.520508l0.0800781 0.0400391h0.0400391c9.0791 3.36035 18.5596 5.39941 28.1191 6.08008c3.60059 0.280273 7.16016 0.359375 10.7607 0.240234zM118.52 427.44c3.52051 0.119141 7.08008 0.0791016 10.6006 -0.120117
c9.43945 -0.560547 18.7598 -2.44043 27.7998 -5.60059c1.71973 -0.599609 2.63965 -1.08008 2.87988 -1.16016l14.6406 -5.67969l-141.4 -141.399l-5.63965 14.7197c0.15918 -0.360352 -0.0400391 0 -0.520508 1.2002v0.0800781
c-13.4795 36.3994 -5.55957 78.8799 23.6006 108.039c18.8398 18.8408 43.2793 28.8408 68.0391 29.9209zM119.4 406.96c-19.7607 -0.799805 -39.2803 -8.75977 -54.4404 -23.9199c-19.4004 -19.4004 -26.3203 -45.8799 -22.2402 -70.9199l93.1602 93.1602
c-2.67969 0.439453 -5.28027 1.43945 -8 1.59961c-2.7998 0.200195 -5.63965 0.200195 -8.47949 0.0800781zM391.68 406.96c-2.87988 0.120117 -5.75977 0.0400391 -8.63965 -0.160156c-2.36035 -0.160156 -4.63965 -1.12012 -7 -1.51953l93.2402 -93.2002
c4.04004 25.0801 -2.87988 51.5596 -22.2402 70.96c-15.4004 15.3604 -35.3203 23.3203 -55.3604 23.9199zM256 386.56c118.64 0 215.04 -96.3994 215.04 -215.04c0 -58.2393 -23.3203 -111.039 -61 -149.8l47.7598 -47.7598
c2.68066 -2.55957 3.75977 -6.40039 2.7998 -9.95996c-0.919922 -3.59961 -3.71973 -6.40039 -7.31934 -7.32031c-3.56055 -0.959961 -7.40039 0.120117 -9.95996 2.80078l-48.2803 48.2393c-37.5205 -31.8799 -86 -51.2393 -139.04 -51.2393
s-101.52 19.3594 -139.04 51.2393l-48.2803 -48.2393c-2.55957 -2.68066 -6.39941 -3.76074 -9.95996 -2.80078c-3.59961 0.919922 -6.39941 3.7207 -7.31934 7.32031c-0.959961 3.55957 0.119141 7.40039 2.7998 9.95996l47.7598 47.7598
c-37.6797 38.7607 -61 91.5605 -61 149.8c0 118.641 96.4004 215.04 215.04 215.04zM256 366.08c-107.56 0 -194.56 -87 -194.56 -194.561c0 -107.56 87 -194.56 194.56 -194.56s194.56 87 194.56 194.56c0 107.561 -87 194.561 -194.56 194.561zM255.84 325.28
c2.75977 0.0400391 5.44043 -1.04004 7.40039 -3s3.04004 -4.64062 3 -7.40039v-141.76c0.519531 -3.16016 -0.480469 -6.36035 -2.7207 -8.67969c0 -0.0400391 -0.0390625 -0.0400391 -0.0390625 -0.0800781
c-0.0400391 -0.0400391 -0.0800781 -0.0400391 -0.120117 -0.0800781v-0.0400391c-2.36035 -2.40039 -5.76074 -3.52051 -9.08008 -2.95996h-80.2002c-3.67969 -0.0400391 -7.12012 1.87988 -9 5.08008c-1.83984 3.19922 -1.83984 7.12012 0 10.3193
c1.87988 3.2002 5.32031 5.12012 9 5.08008h71.6797v133.12c-0.0800781 5.63965 4.44043 10.2803 10.0801 10.4004z"/>
            <glyph glyph-name="plus-math" unicode="&#xf14d;"
                   d="M245.76 355.84h20.4805v-153.6h153.6v-20.4805h-153.6v-153.6h-20.4805v153.6h-153.6v20.4805h153.6v153.6z"/>
            <glyph glyph-name="add-administrator" unicode="&#xf153;"
                   d="M225.08 427.52c24.7598 0 43.4004 -6.7998 53.2803 -19.2793c18 -3.56055 31.4395 -12.4805 40.04 -26.6807c18.8799 -31.1992 7.39941 -78.2393 0.639648 -99.4395c4.36035 -5.44043 7.51953 -13.9199 6.55957 -25.4404
c-2.11914 -23.3994 -11.3193 -32.4395 -18.6797 -35.9199c-3.91992 -17.7598 -13.3604 -37.3594 -22.2402 -46.7197c0 -6.04004 0.0400391 -11.5205 0.120117 -17.1201c-3.31934 -3.55957 -6.47949 -7.32031 -9.43945 -11.2002
c-0.560547 -0.719727 -1.04004 -1.47949 -1.60059 -2.2002c-2.35938 -3.23926 -4.63965 -6.59961 -6.75977 -10.0791c-1.71973 -2.80078 -3.44043 -5.60059 -4.95996 -8.52051l-19.04 -10.5596c3.36035 -3.52051 6.75977 -7.84082 9.59961 -13.5205l-22.1992 -19.4395
s21.1592 -35.3203 24.1592 -71.4805c1.60059 -4.24023 3.28027 -8.43945 5.24023 -12.4795h-239.88l0.560547 10.7598c3.43945 62.1602 53.1592 81.8799 93.1191 97.7197c24.04 9.52051 44.8408 17.7598 50.4404 32.1602c1.28027 10.8799 1.16016 19.3604 0.959961 29.1602
c-0.0400391 2.2002 -0.0800781 4.39941 -0.120117 6.67969c-9.04004 9.24023 -19.1201 28.7998 -22.5596 47.2402c-6.87988 3.71973 -15.3203 12.8398 -18.3203 35c-1 11.8799 2.83984 20.5596 7.04004 26c-11.9199 50.4795 -8.67969 86.96 9.91992 111.439
c16.4805 21.6406 44.7598 33.04 84.1201 33.9199zM225.28 407.04c-32.5605 -0.719727 -55.5205 -9.44043 -68 -25.8398c-15.2803 -20.0801 -16.9199 -52.6807 -5 -99.6406l1.7998 -7l-6.08008 -4.04004s-4.36035 -3.55957 -3.67969 -12.1191
c1.95996 -13.96 6.51953 -18.8008 8 -19.3604h9.2793l0.160156 -9.2002c1.7998 -19.1201 14.5205 -39.5596 18.5605 -42.3203l4.35938 -3.03906l0.640625 -5.76074c0 -3.91992 0.0800781 -7.55957 0.120117 -11.0801c0.119141 -5.7998 0.15918 -11.5195 -0.0400391 -17.5596
l39.8799 -22.1201l39.3594 21.8398c-0.319336 9.48047 -0.439453 18.4404 -0.439453 28.8799v5.95996l5.16016 2.91992c3.87988 2.84082 15.6797 23.04 18.4795 42.7207l1.28027 8.7998h8.83984c1.04004 0.200195 5.83984 4.24023 7.24023 19.4004
c0.599609 7.35938 -1.83984 10.8799 -2.75977 11.5195l-8.12012 4.08008l3.23926 8.43945c9.7207 27.2402 16.4404 66.7607 3.28027 88.4404c-6 9.95996 -15.7998 15.7598 -29.9199 17.7598l-4.87988 0.680664l-2.52051 4.2793
c-4.91992 8.48047 -18.8799 13.3604 -38.2393 13.3604zM389.12 181.76c67.6797 0 122.88 -55.2402 122.88 -122.88s-55.2002 -122.88 -122.88 -122.88s-122.88 55.2402 -122.88 122.88s55.2002 122.88 122.88 122.88zM389.12 161.28
c-56.5605 0 -102.4 -45.8398 -102.4 -102.4c0 -56.5596 45.8398 -102.399 102.4 -102.399c56.5596 0 102.399 45.8398 102.399 102.399c0 56.5605 -45.8398 102.4 -102.399 102.4zM182 128.56c-3.67969 -8.0791 -9.51953 -14.5596 -16.9199 -20.04l19.1201 -23.1992
l23.3594 29.04zM378.88 120.32h20.4805v-51.2002h51.1992v-20.4805h-51.1992v-51.1992h-20.4805v51.1992h-51.2002v20.4805h51.2002v51.2002zM147.2 98c-8.16016 -3.95996 -17 -7.51953 -26.0801 -11.1201c-35.1201 -13.9199 -71.4004 -28.2803 -78.9199 -68.96h154.84
c5.16016 32.6396 23.1201 63.4805 23.1201 63.4805l-7.75977 6.2793l-20.0801 -24.96c-1.95996 -2.39941 -4.83984 -3.83984 -7.91992 -3.83984c-3.08008 -0.0400391 -6.04004 1.36035 -7.95996 3.71973z"/>
            <glyph glyph-name="trash-can" unicode="&#xf13d;"
                   d="M215.04 427.52h81.9199c16.8496 0 30.7197 -13.8701 30.7197 -30.7197v-20.4795h80.3008c0.457031 0.0751953 1.20508 0.136719 1.66992 0.136719c0.463867 0 1.21191 -0.0615234 1.66992 -0.136719h18.7598l0.144531 0.000976562
c5.65332 0 10.2412 -4.58789 10.2412 -10.2412s-4.58789 -10.2412 -10.2412 -10.2412l-0.144531 0.000976562h-10.2402v-368.64c0 -16.8496 -13.8701 -30.7197 -30.7197 -30.7197h-266.24c-16.8496 0 -30.7197 13.8701 -30.7197 30.7197v368.64h-10.2402
l-0.144531 -0.000976562c-5.65332 0 -10.2412 4.58789 -10.2412 10.2412s4.58789 10.2412 10.2412 10.2412l0.144531 -0.000976562h18.8398c0.40625 0.0683594 1.06934 0.130859 1.48047 0.139648h0.0517578c0.46875 0 1.22559 -0.0625 1.68848 -0.139648h80.3398v20.4795
c0 16.8496 13.8701 30.7197 30.7197 30.7197zM215.04 407.04c-5.67871 0 -10.2402 -4.56152 -10.2402 -10.2402v-20.4795h102.4v20.4795c0 5.67871 -4.56152 10.2402 -10.2402 10.2402h-81.9199zM112.64 355.84v-368.64c0 -5.67871 4.56152 -10.2402 10.2402 -10.2402
h266.24c5.67871 0 10.2402 4.56152 10.2402 10.2402v368.64h-80.3008c-0.457031 -0.0751953 -1.20605 -0.136719 -1.66992 -0.136719s-1.21191 0.0615234 -1.66992 0.136719h-119.54c-0.457031 -0.0751953 -1.20605 -0.136719 -1.66992 -0.136719
s-1.21191 0.0615234 -1.66992 0.136719h-80.2002zM194.4 304.78l0.15918 0.000976562c5.65332 0 10.2412 -4.58789 10.2412 -10.2412l-0.000976562 -0.139648v-256l0.000976562 -0.145508c0 -5.65234 -4.58789 -10.2412 -10.2412 -10.2412
c-5.65234 0 -10.2402 4.58887 -10.2402 10.2412l0.000976562 0.145508v256l-0.000976562 0.139648c0 5.56543 4.51562 10.1533 10.0811 10.2402zM255.84 304.78l0.160156 0.000976562c5.65332 0 10.2412 -4.58789 10.2412 -10.2412l-0.000976562 -0.139648v-256
l0.000976562 -0.145508c0 -5.65234 -4.58789 -10.2412 -10.2412 -10.2412s-10.2412 4.58887 -10.2412 10.2412l0.000976562 0.145508v256l-0.000976562 0.139648c0 5.56543 4.5166 10.1533 10.0811 10.2402zM317.28 304.78l0.15918 0.000976562
c5.65332 0 10.2412 -4.58789 10.2412 -10.2412l-0.000976562 -0.139648v-256l0.000976562 -0.145508c0 -5.65234 -4.58789 -10.2412 -10.2402 -10.2412c-5.65332 0 -10.2412 4.58887 -10.2412 10.2412l0.000976562 0.145508v256l-0.000976562 0.139648
c0 5.56543 4.51562 10.1533 10.0811 10.2402z"/>
            <glyph glyph-name="icon" unicode="&#xf147;"
                   d="M286.32 417.48c8.43945 0.239258 16.1602 -4.7207 19.4795 -12.4805c3.28027 -7.7998 1.44043 -16.7998 -4.59961 -22.6797l-190.32 -190.32l190.32 -190.32c5.35938 -5.12012 7.51953 -12.7598 5.63965 -19.96c-1.87988 -7.16016 -7.47949 -12.7598 -14.6396 -14.6396
c-7.2002 -1.87988 -14.8398 0.280273 -19.96 5.63965l-219.28 219.28l219.28 219.28c3.71973 3.7998 8.75977 6.04004 14.0801 6.2002zM419.44 417.48c8.43945 0.239258 16.1592 -4.7207 19.4795 -12.4805c3.28027 -7.7998 1.44043 -16.7998 -4.59961 -22.6797
l-190.32 -190.32l190.32 -190.32c5.35938 -5.12012 7.51953 -12.7598 5.63965 -19.96c-1.87988 -7.16016 -7.47949 -12.7598 -14.6396 -14.6396c-7.2002 -1.87988 -14.8398 0.280273 -19.96 5.63965l-219.28 219.28l219.28 219.28
c3.71973 3.7998 8.75977 6.04004 14.0801 6.2002z"/>
            <glyph glyph-name="minus-filled" unicode="&#xf152;"
                   d="M256 417.28c124.24 0 225.28 -101.04 225.28 -225.28s-101.04 -225.28 -225.28 -225.28s-225.28 101.04 -225.28 225.28s101.04 225.28 225.28 225.28zM368.64 181.76v20.4805h-225.279v-20.4805h225.279z"/>
            <glyph glyph-name="search" unicode="&#xf115;"
                   d="M304 400c88.1875 0 160 -71.8125 160 -160s-71.8125 -160 -160 -160c-38.3125 0 -73.4375 13.4375 -101 36l-127.5 -127.5l-23 23l127.5 127.5c-22.5625 27.5625 -36 62.6875 -36 101c0 88.1875 71.8125 160 160 160zM304 368c-70.875 0 -128 -57.125 -128 -128
s57.125 -128 128 -128s128 57.125 128 128s-57.125 128 -128 128z"/>
            <glyph glyph-name="settings" unicode="&#xf114;"
                   d="M211 400h90l2.5 -13l9.5 -47.5c15.25 -6 29 -14.4375 41.5 -24.5l46.5 16l12.5 4l6.5 -11.5l32 -55l6.5 -11.5l-9.5 -8.5l-36 -31.5c1.3125 -8.1875 3 -16.375 3 -25s-1.6875 -16.8125 -3 -25l36 -31.5l9.5 -8.5l-6.5 -11.5l-32 -55l-6.5 -11.5l-12.5 4l-46.5 16
c-12.5 -10.0625 -26.25 -18.5 -41.5 -24.5l-9.5 -47.5l-2.5 -13h-90l-2.5 13l-9.5 47.5c-15.25 6 -29 14.4375 -41.5 24.5l-46.5 -16l-12.5 -4l-6.5 11.5l-32 55l-6.5 11.5l9.5 8.5l36 31.5c-1.3125 8.1875 -3 16.375 -3 25s1.6875 16.8125 3 25l-36 31.5l-9.5 8.5l6.5 11.5
l32 55l6.5 11.5l12.5 -4l46.5 -16c12.5 10.0625 26.25 18.5 41.5 24.5l9.5 47.5zM237 368l-8 -41.5l-2 -9.5l-9 -3c-18.1875 -5.6875 -34.6875 -15.3125 -48.5 -28l-7 -6.5l-9 3l-40.5 14l-19 -32.5l32 -28.5l7.5 -6l-2.5 -9.5c-2.0625 -9.125 -3 -18.4375 -3 -28
s0.9375 -18.875 3 -28l2.5 -9.5l-7.5 -6l-32 -28.5l19 -32.5l40.5 14l9 3l7 -6.5c13.8125 -12.6875 30.3125 -22.3125 48.5 -28l9 -3l2 -9.5l8 -41.5h38l8 41.5l2 9.5l9 3c18.1875 5.6875 34.6875 15.3125 48.5 28l7 6.5l9 -3l40.5 -14l19 32.5l-32 28.5l-7 6l2 9.5
c2.0625 9.125 3 18.4375 3 28s-0.9375 18.875 -3 28l-2.5 9.5l7.5 6l32 28.5l-19 32.5l-40.5 -14l-9 -3l-7 6.5c-13.8125 12.6875 -30.3125 22.3125 -48.5 28l-9 3l-2 9.5l-8 41.5h-38zM256 272c44 0 80 -36 80 -80s-36 -80 -80 -80s-80 36 -80 80s36 80 80 80zM256 240
c-26.6875 0 -48 -21.3125 -48 -48s21.3125 -48 48 -48s48 21.3125 48 48s-21.3125 48 -48 48z"/>
            <glyph glyph-name="edit" unicode="&#xf102;"
                   d="M382.5 384.5c16.75 0 33.5 -6.5 46.5 -19.5c26 -26 26 -67 0 -93l-253 -253l-5 -1l-88 -17.5l-23.5 -5l5 23.5l17.5 88l1 5l253 253c13 13 29.75 19.5 46.5 19.5zM382.5 354c-8.0625 0 -16.1875 -3.6875 -24 -11.5l-11 -11.5l47.5 -47.5l11.5 11
c15.5625 15.5625 15.5625 32.4375 0 48c-7.8125 7.8125 -15.9375 11.5 -24 11.5zM325 308.5l-193.5 -193.5c20.5 -10.5 37 -27 47.5 -47.5l193.5 193.5zM111 89l-10.5 -52.5l52.5 10.5c-7.75 19.1875 -22.8125 34.25 -42 42z"/>
            <glyph glyph-name="edit-property" unicode="&#xf11c;"
                   d="M64 368h384v-179c5.25 1.875 10.5 3 16 3c12.3125 0 24.6875 -4.6875 34 -14c18.5625 -18.5625 18.5625 -49.4375 0 -68l-156 -156l-5 -1l-56.5 -11l-23.5 -5l5 23.5l11 55.5h-209v352zM96 336v-32h320v32h-320zM96 272v-224h204l116 116v108h-320zM144 224h32v-32h-32
v32zM208 224h160v-32h-160v32zM144 160h32v-32h-32v32zM208 160h96v-32h-96v32zM464 160c-4.0625 0 -7.8125 -1.3125 -11 -4.5l-149.5 -149.5l-6 -28.5l28.5 6l149.5 149.5c6.375 6.375 6.375 16.125 0 22.5c-3.1875 3.1875 -7.4375 4.5 -11.5 4.5z"/>
            <glyph glyph-name="upload" unicode="&#xf10a;"
                   d="M256 441.92l7.36035 -7.04004l81.9199 -81.9199c4.08008 -4.08008 4.08008 -10.6396 0 -14.7197s-10.6406 -4.08008 -14.7207 0l-64.3193 64.3193v-282.239c0.0400391 -3.68066 -1.87988 -7.12012 -5.08008 -9c-3.2002 -1.83984 -7.12012 -1.83984 -10.3203 0
c-3.2002 1.87988 -5.12012 5.31934 -5.08008 9v282.239l-64.3193 -64.3193c-4.08008 -4.08008 -10.6406 -4.08008 -14.7207 0s-4.08008 10.6396 0 14.7197l81.9199 81.9199zM71.6797 284.16h102.4c3.67969 0.0400391 7.12012 -1.87988 9 -5.08008
c1.83984 -3.2002 1.83984 -7.12012 0 -10.3203c-1.87988 -3.2002 -5.32031 -5.12012 -9 -5.08008h-81.9199v-307.199h327.68v307.199h-81.9199c-3.67969 -0.0400391 -7.12012 1.87988 -9 5.08008c-1.83984 3.2002 -1.83984 7.12012 0 10.3203
c1.87988 3.2002 5.32031 5.12012 9 5.08008h102.4v-348.16h-368.641v348.16z"/>
            <glyph glyph-name="refresh" unicode="&#xf127;"
                   d="M162 384h115.333c94 0 170.667 -76.667 170.667 -170.667v-85.333h64l-85.333 -116.667l-85.334 116.667h64v85.333c0 70.917 -57.083 128 -128 128h-84zM85.333 372.667l85.334 -116.667h-64v-85.333c0 -70.917 57.083 -128 128 -128h84l31.333 -42.667h-115.333
c-94 0 -170.667 76.667 -170.667 170.667v85.333h-64z"/>
            <glyph glyph-name="plus" unicode="&#xf10f;"
                   d="M256 417.28c124.28 0 225.28 -101 225.28 -225.28s-101 -225.28 -225.28 -225.28s-225.28 101 -225.28 225.28s101 225.28 225.28 225.28zM256 396.8c-113.24 0 -204.8 -91.5596 -204.8 -204.8s91.5596 -204.8 204.8 -204.8s204.8 91.5596 204.8 204.8
s-91.5596 204.8 -204.8 204.8zM245.76 304.64h20.4805v-102.399h102.399v-20.4805h-102.399v-102.399h-20.4805v102.399h-102.399v20.4805h102.399v102.399z"/>
            <glyph glyph-name="notification" unicode="&#xf12c;"
                   d="M256 448c22.5195 0 40.96 -18.4404 40.96 -40.96c0 -5.28027 -1.04004 -10.4004 -2.87988 -15.04c57.5195 -15.04 95.04 -65.04 95.04 -128.32c0 -80.1992 19.6797 -116.72 38.3994 -137.279c9.36035 -10.2803 18.6006 -16.5205 26.5605 -22.4004
c4 -2.91992 7.63965 -5.83984 10.8799 -9.59961c3.24023 -3.76074 6.08008 -9.12012 6.08008 -15.04c0 -14.0801 -8.63965 -26.04 -20.7998 -33.9199c-12.1602 -7.88086 -28.1201 -12.96 -47.3604 -16.96c-24.96 -5.16016 -55.7598 -7.88086 -89.5996 -9.28027
c2.59961 -6.75977 4.16016 -14.0801 4.16016 -21.7598c0 -33.8008 -27.6406 -61.4404 -61.4404 -61.4404s-61.4404 27.6396 -61.4404 61.4404c0 7.63965 1.60059 14.96 4.16016 21.7598c-33.8398 1.39941 -64.6396 4.12012 -89.5996 9.28027
c-19.2402 4 -35.2002 9.0791 -47.3604 16.96c-12.1602 7.87988 -20.7998 19.8398 -20.7998 33.9199c0 5.91992 2.83984 11.2793 6.08008 15.04c3.24023 3.75977 6.87988 6.67969 10.8799 9.59961c7.95996 5.87988 17.2002 12.1201 26.5605 22.4004
c18.7197 20.5596 38.3994 57.0801 38.3994 137.279c0 63.3203 37.4404 113.36 95.04 128.32c-1.83984 4.63965 -2.87988 9.75977 -2.87988 15.04c0 22.5195 18.4404 40.96 40.96 40.96zM256 427.52c-11.4404 0 -20.4805 -9.03906 -20.4805 -20.4795
s9.04004 -20.4805 20.4805 -20.4805s20.4805 9.04004 20.4805 20.4805s-9.04004 20.4795 -20.4805 20.4795zM280 374.4c-6.7998 -5.08008 -14.9199 -8.32031 -24 -8.32031c-9 0 -17.2002 3 -24 8c-54.5596 -9.75977 -88.6396 -51.6396 -88.6396 -110.4
c0 -83.6396 -21.2803 -126.6 -43.5205 -151.04c-11.1201 -12.1992 -22.3594 -19.8398 -29.7598 -25.2793c-3.67969 -2.7207 -6.44043 -5 -7.67969 -6.40039c-1.24023 -1.40039 -0.959961 -1.28027 -0.959961 -1.59961c0 -6.40039 2.95996 -11.0801 11.5195 -16.6406
c8.55957 -5.55957 22.4805 -10.7197 40.3203 -14.3994c35.6797 -7.40039 86.4795 -9.91992 142.72 -9.91992s107.04 2.51953 142.72 9.91992c17.8398 3.67969 31.7607 8.83984 40.3203 14.3994c8.55957 5.56055 11.5195 10.2402 11.5195 16.6406
c0 0.319336 0.280273 0.199219 -0.959961 1.59961c-1.23926 1.40039 -4 3.67969 -7.67969 6.40039c-7.40039 5.43945 -18.6396 13.0801 -29.7598 25.2793c-22.2402 24.4404 -43.5205 67.4004 -43.5205 151.04c0 58.8008 -34.04 101 -88.6396 110.721zM220.8 18.5596
c-3.71973 -6.15918 -5.75977 -13.3594 -5.75977 -21.1191c0 -22.7607 18.2002 -40.96 40.96 -40.96s40.96 18.1992 40.96 40.96c0 7.67969 -2.12012 14.96 -5.75977 21.1191c-11.4805 -0.239258 -23.1602 -0.639648 -35.2002 -0.639648s-23.7197 0.400391 -35.2002 0.639648
z"/>
            <glyph glyph-name="expand-arrow" unicode="&#xf11b;"
                   d="M460.68 304.8c4.24023 0.0800781 8.08008 -2.43945 9.7207 -6.31934c1.59961 -3.88086 0.679688 -8.40039 -2.36035 -11.3203l-204.8 -204.8c-4 -4 -10.4805 -4 -14.4805 0l-204.8 204.8c-3 2.91992 -3.91992 7.32031 -2.36035 11.2002
c1.60059 3.83984 5.32031 6.35938 9.52051 6.39941c2.75977 -0.0400391 5.39941 -1.12012 7.32031 -3.12012l197.56 -197.56l197.56 197.56c1.88086 1.95996 4.44043 3.08008 7.12012 3.16016z"/>
            <glyph glyph-name="sort-filled" unicode="&#xf120;"
                   d="M256 417.28l184.32 -194.561h-368.641zM71.6797 181.76h368.641l-184.32 -194.56z"/>
            <glyph glyph-name="clothes" unicode="&#xf12a;"
                   d="M162.24 386.56c2.08008 0.320312 4.2002 -0.0400391 6.08008 -0.959961c0 0 41.3594 -19.5195 87.6797 -19.5195s87.6797 19.5195 87.6797 19.5195c3.95996 1.95996 8.7207 1.2002 11.8398 -1.91992l153.601 -153.6c2 -1.91992 3.12012 -4.59961 3.12012 -7.36035
c0 -2.75977 -1.12012 -5.43945 -3.12012 -7.35938l-81.9199 -81.9199c-1.91992 -2 -4.60059 -3.12012 -7.36035 -3.12012s-5.43945 1.12012 -7.35938 3.12012l-13.1201 13.1191v-149.119c0 -5.64062 -4.60059 -10.2402 -10.2402 -10.2402h-266.24
c-5.63965 0 -10.2402 4.59961 -10.2402 10.2402v149.119l-23.3594 -23.3594c-2.04004 -2 -4.7998 -3.08008 -7.68066 -2.95996c-2.83984 0.120117 -5.51953 1.39941 -7.35938 3.59961l-71.6807 81.9199c-3.43945 4 -3.31934 9.91992 0.320312 13.7598l153.601 163.841
c1.51953 1.67969 3.51953 2.7998 5.75977 3.19922zM166.72 364.48l-142.72 -152.32l58.2402 -66.5605l33.2793 33.2803c2.9209 3.04004 7.44043 3.95996 11.3203 2.32031c3.87988 -1.60059 6.36035 -5.48047 6.28027 -9.68066v-163.84h245.76v163.84
c-0.0800781 4.2002 2.40039 8.08008 6.28027 9.68066c3.87988 1.63965 8.39941 0.719727 11.3203 -2.32031l23.3594 -23.3604l67.2002 67.2002l-141.76 141.761c-9.36035 -4.16016 -43.8799 -18.8809 -89.2803 -18.8809s-79.9199 14.7207 -89.2803 18.8809z"/>
            <glyph glyph-name="delete" unicode="&#xf111;"
                   d="M88 382.625l11.25 -11.375l156.75 -156.625l168 168l22.625 -22.625l-168 -168l156.75 -156.625l11.25 -11.375l-22.625 -22.625l-11.375 11.25l-156.625 156.75l-168 -168l-22.625 22.625l168 168l-156.625 156.75l-11.375 11.25z"/>
        </font>
</defs>
</svg>
