<?xml version="1.0" encoding="UTF-8"?>
<svg width="58px" height="58px" viewBox="0 0 58 58" version="1.1" xmlns="http://www.w3.org/2000/svg"
     xmlns:xlink="http://www.w3.org/1999/xlink">
    <!-- Generator: Sketch 48.2 (47327) - http://www.bohemiancoding.com/sketch -->
    <title>a_add_people</title>
    <desc>Created with Sketch.</desc>
    <defs>
        <linearGradient x1="72.8265725%" y1="10.9047642%" x2="15.0973268%" y2="86.4069354%" id="linearGradient-1">
            <stop stop-color="#FF7373" offset="0%"></stop>
            <stop stop-color="#FA4343" offset="100%"></stop>
        </linearGradient>
        <path d="M28.4464414,17.4192189 C27.8934399,17.0221921 27.2758427,16.8047727 26.6141315,16.6267409 C24.8936822,16.1651185 20.9438963,13.4253188 22.4878892,11.4638177 C24.0555147,9.51964701 24.1878569,6.40960415 23.7892546,4.00223558 C23.4158604,1.62165058 21.1865237,0.00833556009 18.8910159,0.00833555971 C17.8748165,0.00833555971 16.8601926,0.340766671 16.022025,0.934731305 C16.5955081,1.73036029 16.9720533,2.65833157 17.1469342,3.65247392 C17.4100432,5.28154401 17.7850129,9.23290545 15.8219361,12.2342386 L15.8219361,12.2389651 C15.6400612,12.4350304 15.5373357,12.6915634 15.5336191,12.95897 C15.5336191,13.6033507 16.2615015,13.9861979 16.7814174,14.1090871 L17.3675045,14.2445804 C17.6983602,14.3328086 18.0292158,14.3974041 18.3380144,14.4840568 C19.1557004,14.7077782 20.0600391,15.0134258 20.9186883,15.6325985 C23.5009376,17.5090225 23.414285,20.953072 23.3260568,22.0764056 L29.9242632,22.0764056 C29.9242632,22.0748301 30.4095181,18.8340205 28.4464414,17.4192189 Z"
              id="path-2"></path>
        <filter x="-41.5%" y="-27.2%" width="183.1%" height="154.4%" filterUnits="objectBoundingBox" id="filter-3">
            <feOffset dx="0" dy="0" in="SourceAlpha" result="shadowOffsetOuter1"></feOffset>
            <feGaussianBlur stdDeviation="2" in="shadowOffsetOuter1" result="shadowBlurOuter1"></feGaussianBlur>
            <feColorMatrix values="0 0 0 0 0.895275298   0 0 0 0 0.170990376   0 0 0 0 0.170990376  0 0 0 0.494168931 0"
                           type="matrix" in="shadowBlurOuter1"></feColorMatrix>
        </filter>
        <path d="M18.8147691,16.6157124 C17.1100749,16.163543 15.1816592,16.0453803 13.8330287,14.2162213 C13.8330287,14.2162213 13.1445339,13.4174413 14.7011308,11.4669686 C16.2687563,9.50861845 16.3979475,6.40802861 16.0024963,4.00853758 C15.6164981,1.60904654 13.4013409,0.00676002688 11.1011066,0.00676007252 C8.80402325,0.00676007252 6.58886606,1.60904659 6.19814131,4.00853758 C5.80111456,6.40645308 5.93345681,9.50861845 7.49950679,11.4669686 C9.05767924,13.4174413 8.37075992,14.2162213 8.37075992,14.2162213 C7.02843139,16.0264742 5.11734631,16.1588165 3.42368059,16.6062593 C2.75251632,16.7858667 2.10971111,17.0127391 1.55513408,17.4160678 C-0.409518134,18.8371715 0.0757367951,22.0748301 0.0757367951,22.0748301 L22.1296273,22.0748301 C22.1296273,22.0748301 22.6117312,18.8371715 20.6518055,17.4176433 C20.1098325,17.0206166 19.4780558,16.8000462 18.8194956,16.6141368 L18.8147691,16.6141368 L18.8147691,16.6157124 Z"
              id="path-4"></path>
        <filter x="-27.1%" y="-27.2%" width="154.2%" height="154.4%" filterUnits="objectBoundingBox" id="filter-5">
            <feOffset dx="0" dy="0" in="SourceAlpha" result="shadowOffsetOuter1"></feOffset>
            <feGaussianBlur stdDeviation="2" in="shadowOffsetOuter1" result="shadowBlurOuter1"></feGaussianBlur>
            <feColorMatrix values="0 0 0 0 0.895275298   0 0 0 0 0.170990376   0 0 0 0 0.170990376  0 0 0 0.494168931 0"
                           type="matrix" in="shadowBlurOuter1"></feColorMatrix>
        </filter>
    </defs>
    <g id="图标使用规范" stroke="none" stroke-width="1" fill="none" fill-rule="evenodd"
       transform="translate(-526.000000, -2781.000000)">
        <g id="a_add_people" transform="translate(526.000000, 2781.000000)">
            <circle id="Oval-3-Copy" fill="url(#linearGradient-1)" cx="29" cy="29" r="29"></circle>
            <g id="人员_2" transform="translate(15.000000, 18.000000)" fill-rule="nonzero">
                <g id="Shape" opacity="0.550000012">
                    <use fill="black" fill-opacity="1" filter="url(#filter-3)" xlink:href="#path-2"></use>
                    <use fill="#FFFFFF" fill-rule="evenodd" xlink:href="#path-2"></use>
                </g>
                <g id="Shape">
                    <use fill="black" fill-opacity="1" filter="url(#filter-5)" xlink:href="#path-4"></use>
                    <use fill="#FFFAFA" fill-rule="evenodd" xlink:href="#path-4"></use>
                </g>
            </g>
        </g>
    </g>
</svg>