<?xml version="1.0" encoding="UTF-8"?>
<svg width="27px" height="19px" viewBox="0 0 27 19" version="1.1" xmlns="http://www.w3.org/2000/svg"
>
    <!-- Generator: Sketch 48.2 (47327) - http://www.bohemiancoding.com/sketch -->
    <title>a_nav_new</title>
    <desc>Created with Sketch.</desc>
    <defs></defs>
    <g id="左侧导航栏" stroke="none" stroke-width="1" fill="none" fill-rule="evenodd"
       transform="translate(-86.000000, -925.000000)">
        <g id="a_nav_new" transform="translate(86.000000, 925.000000)">
            <rect id="Path" fill="#FFFFFF" x="1" y="2" width="25" height="10"></rect>
            <path d="M27,3.75 L27,10.3125 C27,12.3835678 25.3210678,14.0625 23.25,14.0625 L10.71375,14.0625 L4.6875,18.28125 L4.6875,14.0625 L3.75,14.0625 C1.67893219,14.0625 2.53632657e-16,12.3835678 0,10.3125 L0,3.75 C-2.53632657e-16,1.67893219 1.67893219,0 3.75,0 L23.25,0 C25.3210678,0 27,1.67893219 27,3.75 Z"
                  id="Shape" fill="#FF9E17" fill-rule="nonzero"></path>
            <path d="M4,4 L4.774,4 L8.41,9.229 L8.437,9.229 L8.437,4 L9.175,4 L9.175,10.426 L8.419,10.426 L4.765,5.143 L4.738,5.143 L4.738,10.426 L4,10.426 L4,4 Z M10.471,4 L15.025,4 L15.025,4.639 L11.209,4.639 L11.209,6.79 L14.809,6.79 L14.809,7.429 L11.209,7.429 L11.209,9.787 L15.178,9.787 L15.178,10.426 L10.471,10.426 L10.471,4 Z M15.601,4 L16.429,4 L17.842,9.391 L17.878,9.391 L19.345,4 L20.146,4 L21.604,9.391 L21.64,9.391 L23.053,4 L23.881,4 L22.036,10.426 L21.217,10.426 L19.759,5.071 L19.732,5.071 L18.265,10.426 L17.446,10.426 L15.601,4 Z"
                  id="NEW" fill="#FFFFFF"></path>
        </g>
    </g>
</svg>