<?xml version="1.0" encoding="UTF-8"?>
<svg width="30px" height="19px" viewBox="0 0 30 19" version="1.1" xmlns="http://www.w3.org/2000/svg"
>
    <!-- Generator: Sketch 48.2 (47327) - http://www.bohemiancoding.com/sketch -->
    <title>a_nav_beta</title>
    <desc>Created with Sketch.</desc>
    <defs></defs>
    <g id="图标使用规范" stroke="none" stroke-width="1" fill="none" fill-rule="evenodd"
       transform="translate(-1111.000000, -2755.000000)">
        <g id="a_nav_beta" transform="translate(1111.000000, 2755.000000)">
            <rect id="Path" fill="#FFFFFF" x="1" y="2" width="27" height="10"></rect>
            <path d="M30,3.75 L30,10.3125 C30,12.3835678 28.3210678,14.0625 26.25,14.0625 L10.71375,14.0625 L4.6875,18.28125 L4.6875,14.0625 L3.75,14.0625 C1.67893219,14.0625 2.53632657e-16,12.3835678 0,10.3125 L0,3.75 C-2.53632657e-16,1.67893219 1.67893219,0 3.75,0 L26.25,0 C28.3210678,0 30,1.67893219 30,3.75 Z M8.840625,8.458125 C8.84819662,8.09102672 8.73268657,7.73195548 8.5125,7.438125 C8.27411186,7.13684266 7.943447,6.92210812 7.57125,6.826875 C7.86119229,6.6933479 8.10658249,6.47920101 8.278125,6.21 C8.43106842,5.96611993 8.5122896,5.68411999 8.5125,5.39625 C8.5104566,5.08033485 8.41877833,4.77148962 8.248125,4.505625 C8.07564368,4.22599988 7.82086813,4.00659163 7.51875,3.8775 C7.2075,3.7425 6.795,3.673125 6.28125,3.673125 L3.751875,3.673125 L3.751875,10.411875 L6.320625,10.411875 C6.75,10.411875 7.111875,10.374375 7.408125,10.2975 C7.704375,10.2225 7.95,10.11 8.146875,9.96375 C8.34375,9.8175 8.506875,9.609375 8.64,9.3375 C8.773125,9.065625 8.840625,8.773125 8.840625,8.458125 Z M15.114375,9.616875 L10.97625,9.616875 L10.97625,7.321875 L14.70375,7.321875 L14.70375,6.530625 L10.97625,6.530625 L10.97625,4.468125 L14.956875,4.468125 L14.956875,3.673125 L10.085625,3.673125 L10.085625,10.411875 L15.114375,10.411875 L15.114375,9.616875 Z M18.950625,4.468125 L21.18,4.468125 L21.18,3.673125 L15.84,3.673125 L15.84,4.468125 L18.06,4.468125 L18.06,10.411875 L18.9525,10.411875 L18.9525,4.468125 L18.950625,4.468125 Z M26.9625,10.411875 L24.204375,3.673125 L23.2425,3.673125 L20.655,10.411875 L21.601875,10.411875 L22.3425,8.37 L25.160625,8.37 L25.94625,10.411875 L26.9625,10.411875 Z M6.10125,6.504375 L4.644375,6.504375 L4.644375,4.468125 L5.990625,4.468125 C6.474375,4.468125 6.815625,4.5 7.01625,4.561875 C7.215,4.625625 7.36875,4.741875 7.475625,4.9125 C7.5825,5.083125 7.635,5.278125 7.635,5.503125 C7.635,5.739375 7.57875,5.934375 7.4625,6.091875 C7.33364257,6.25684946 7.15356093,6.37426533 6.950625,6.425625 C6.67226052,6.48952199 6.38661702,6.51600549 6.10125,6.504375 Z M7.186875,7.411875 C7.40427312,7.47914548 7.59299613,7.61705844 7.723125,7.80375 C7.85357289,7.99667794 7.92104118,8.22528409 7.91625,8.458125 C7.91625,8.671875 7.87125,8.86125 7.783125,9.024375 C7.695,9.1875 7.580625,9.313125 7.44375,9.399375 C7.28460029,9.49173275 7.10981557,9.55401967 6.928125,9.583125 C6.811875,9.605625 6.609375,9.616875 6.3225,9.616875 L4.644375,9.616875 L4.644375,7.299375 L6.200625,7.299375 C6.53315147,7.28733371 6.86560257,7.32525588 7.186875,7.411875 Z M23.705625,4.38 C23.8436659,4.85304641 24.0025713,5.31975288 24.181875,5.77875 L24.885,7.644375 L22.60125,7.644375 L23.341875,5.668125 C23.4975,5.240625 23.6175,4.81125 23.705625,4.38 Z"
                  id="Shape" fill="#FF9E17" fill-rule="nonzero"></path>
        </g>
    </g>
</svg>