<?xml version="1.0" encoding="UTF-8"?>
<svg width="20px" height="17px" viewBox="0 0 20 17" version="1.1" xmlns="http://www.w3.org/2000/svg" xmlns:xlink="http://www.w3.org/1999/xlink">
    <!-- Generator: Sketch 48.2 (47327) - http://www.bohemiancoding.com/sketch -->
    <title>folder@1x</title>
    <desc>Created with Sketch.</desc>
    <defs></defs>
    <g id="考生3.0-移动端" stroke="none" stroke-width="1" fill="none" fill-rule="evenodd">
        <g id="folder" fill="#FFC35E" fill-rule="nonzero">
            <path d="M8.75286817,1.26572008 C9.02873024,1.9959432 9.80763491,2.4989858 10.6189939,2.53144016 C10.8461745,2.53144016 10.8786288,2.53144016 11.0895822,2.53144016 L11.251854,2.53144016 L18.7488114,2.53144016 C19.430353,2.53144016 19.9983043,3.11561866 19.9983043,3.79716024 L19.9983043,8.82758621 L19.9983043,11.3427992 L19.9983043,15.1237323 C19.9983043,15.8052738 19.430353,16.3894523 18.7488114,16.3894523 L1.25591077,16.3894523 C0.574369189,16.3894523 0.00641787018,15.8052738 0.00641787018,15.1237323 L0.00641787018,1.26572008 C0.00641787018,0.584178499 0.574369189,0 1.25591077,0 L7.50337527,0 M7.50337527,0.0162271805 C8.10378095,0.0486815416 8.59059637,0.778904665 8.75286817,1.28194726" id="Shape"></path>
        </g>
    </g>
</svg>