<?xml version="1.0" encoding="UTF-8"?>
<svg width="15px" height="13px" viewBox="0 0 15 13" version="1.1" xmlns="http://www.w3.org/2000/svg" xmlns:xlink="http://www.w3.org/1999/xlink">
    <!-- Generator: Sketch 48.2 (47327) - http://www.bohemiancoding.com/sketch -->
    <title>p_icon_accuracy_rate</title>
    <desc>Created with Sketch.</desc>
    <defs>
        <linearGradient x1="100%" y1="50%" x2="5.56665568%" y2="14.9824548%" id="linearGradient-1">
            <stop stop-color="#1A8CFE" offset="0%"></stop>
            <stop stop-color="#49CBFF" offset="100%"></stop>
        </linearGradient>
    </defs>
    <g id="考试结果页-copy-3" stroke="none" stroke-width="1" fill="none" fill-rule="evenodd" transform="translate(-505.000000, -394.000000)">
        <g id="Group-19" transform="translate(448.000000, 355.000000)" fill="url(#linearGradient-1)" fill-rule="nonzero">
            <g id="Group-4" transform="translate(57.000000, 10.000000)">
                <g id="Group-12" transform="translate(0.000000, 27.000000)">
                    <g id="p_icon_accuracy_rate" transform="translate(7.500000, 8.500000) scale(-1, 1) translate(-7.500000, -8.500000) translate(0.000000, 2.000000)">
                        <path d="M0,4.80340396 C0.202463478,4.43160346 0.541073919,4.3687284 0.921386161,4.3696199 C2.80810854,4.37421188 4.69483092,4.37237845 6.58155331,4.37133558 C7.34106194,4.37088143 7.54625668,4.07949979 7.30797032,3.3524838 C7.05324638,2.57537634 6.79897212,1.79799977 6.54984397,1.01904206 C6.34275068,0.371402054 6.58315211,0.100726452 7.24133741,0.02711991 C8.61223343,-0.126299942 9.57212377,0.366221343 10.1939533,1.63199818 C10.5248196,2.30545765 10.9866701,2.91397316 11.3970096,3.54682793 C11.7564543,4.10111413 11.9314719,4.70281732 11.9298065,5.36702552 C11.9239775,7.66376491 11.927758,9.96052112 11.9274582,12.2573614 C11.9273583,12.8998207 11.8437382,12.986665 11.2221586,12.9867323 C8.7357233,12.9871696 6.24925474,12.987321 3.76278616,12.9867323 C3.02564393,12.9865304 2.58098039,12.6618442 2.33838063,11.9476959 C1.60999843,9.80348485 0.882965223,7.65873557 0.152934283,5.51504599 C0.11373061,5.40001055 0.0514777077,5.29296483 0,5.18215133 C0,5.05587977 0,4.92967551 0,4.80340396 Z M14.9999834,5.03064902 C14.9999834,7.45463554 14.9999834,9.87862207 15,12.3026086 C14.7872776,12.8253059 14.406549,13.0492373 13.8470391,12.9910047 C13.6122501,12.966514 13.3728978,12.9885657 13.1356274,12.9864968 C12.7026217,12.982729 12.5615618,12.8440271 12.5489047,12.3972912 C12.5414103,12.1326878 12.547206,11.8676471 12.547206,11.6027409 C12.547206,9.4206501 12.5456738,7.23855931 12.548405,5.0564685 C12.5490546,4.52976794 12.7000403,4.38087282 13.2150506,4.37221025 C13.3898517,4.36931712 13.5653023,4.38115876 13.7394205,4.36990584 C14.2932015,4.33417909 14.740996,4.49648016 14.9999834,5.03064902 Z" id="Combined-Shape"></path>
                    </g>
                </g>
            </g>
        </g>
    </g>
</svg>